<svg width="34" height="34" viewBox="0 0 34 34" fill="none" xmlns="http://www.w3.org/2000/svg">
<g clip-path="url(#clip0_136_1825)">
<path d="M6.29563 0C2.87304 0 0.117188 2.75586 0.117188 6.17844V27.6586C0.117188 31.0812 2.87304 33.8371 6.29563 33.8371H17.9377V20.6089H14.4398V15.8463H17.9377V11.7774C17.9377 8.58067 20.0044 5.64551 24.7654 5.64551C26.693 5.64551 28.1184 5.83056 28.1184 5.83056L28.0063 10.278C28.0063 10.278 26.5526 10.2643 24.9663 10.2643C23.2494 10.2643 22.9741 11.0553 22.9741 12.3686V15.8464H28.1427L27.9175 20.6089H22.9741V33.8371H27.7758C31.1984 33.8371 33.9542 31.0812 33.9542 27.6587V6.17847C33.9542 2.75589 31.1984 3.3837e-05 27.7758 3.3837e-05H6.29559L6.29563 0Z" fill="url(#paint0_linear_136_1825)"/>
</g>
<defs>
<linearGradient id="paint0_linear_136_1825" x1="17.0357" y1="0" x2="17.0357" y2="33.8371" gradientUnits="userSpaceOnUse">
<stop stop-color="#FE386A"/>
<stop offset="1" stop-color="#FC850B"/>
</linearGradient>
<clipPath id="clip0_136_1825">
<rect width="33.837" height="33.837" fill="white" transform="translate(0.117188)"/>
</clipPath>
</defs>
</svg>
