<svg width="35" height="34" viewBox="0 0 35 34" fill="none" xmlns="http://www.w3.org/2000/svg">
<g clip-path="url(#clip0_136_1823)">
<path d="M28.2766 13.9053C28.3961 13.9012 28.5151 13.9212 28.6266 13.964C28.7382 14.0069 28.84 14.0718 28.9259 14.1548C29.0119 14.2378 29.0802 14.3373 29.1269 14.4473C29.1736 14.5573 29.1976 14.6756 29.1976 14.7951C29.1976 14.9146 29.1736 15.0329 29.1269 15.1429C29.0802 15.2529 29.0119 15.3524 28.9259 15.4354C28.84 15.5185 28.7382 15.5834 28.6266 15.6262C28.5151 15.6691 28.3961 15.689 28.2766 15.6849H25.8034V17.271H28.2766C28.3968 17.2652 28.5169 17.2838 28.6296 17.3257C28.7424 17.3676 28.8454 17.432 28.9325 17.515C29.0196 17.598 29.089 17.6977 29.1364 17.8083C29.1837 17.9189 29.2082 18.0379 29.2082 18.1582C29.2082 18.2785 29.1837 18.3975 29.1364 18.5081C29.089 18.6187 29.0196 18.7185 28.9325 18.8014C28.8454 18.8844 28.7424 18.9488 28.6296 18.9907C28.5169 19.0326 28.3968 19.0512 28.2766 19.0454H24.9172C24.6824 19.0445 24.4575 18.9507 24.2916 18.7845C24.1257 18.6182 24.0325 18.393 24.0322 18.1582V11.4331C24.0322 10.9435 24.4287 10.5417 24.9172 10.5417H28.283C28.5113 10.5535 28.7263 10.6527 28.8835 10.8187C29.0407 10.9847 29.128 11.2049 29.1274 11.4335C29.1267 11.6621 29.0381 11.8817 28.8799 12.0468C28.7217 12.2119 28.5061 12.3098 28.2777 12.3203H25.8044V13.9064L28.2766 13.9053ZM22.8479 18.1571C22.8459 18.3927 22.7511 18.6179 22.584 18.7838C22.4168 18.9497 22.191 19.043 21.9554 19.0433C21.816 19.0446 21.6782 19.0135 21.5528 18.9524C21.4275 18.8913 21.318 18.8018 21.2332 18.6911L17.7914 14.01V18.1561C17.7914 18.3914 17.6979 18.617 17.5315 18.7834C17.3652 18.9498 17.1395 19.0433 16.9042 19.0433C16.6689 19.0433 16.4433 18.9498 16.2769 18.7834C16.1105 18.617 16.017 18.3914 16.017 18.1561V11.431C16.017 11.0514 16.2655 10.7109 16.6229 10.5893C16.7112 10.5581 16.8043 10.5427 16.8979 10.5438C17.1728 10.5438 17.4266 10.6929 17.5968 10.9023L21.0662 15.594V11.431C21.0662 10.9414 21.4627 10.5396 21.9533 10.5396C22.444 10.5396 22.8458 10.9414 22.8458 11.431L22.8479 18.1571ZM14.7524 18.1571C14.7513 18.393 14.6567 18.6188 14.4894 18.7851C14.3222 18.9514 14.0958 19.0446 13.8599 19.0443C13.6258 19.0424 13.402 18.9481 13.237 18.7819C13.0721 18.6158 12.9794 18.3913 12.9791 18.1571V11.432C12.9791 10.9425 13.3756 10.5406 13.8663 10.5406C14.3559 10.5406 14.7534 10.9425 14.7534 11.432L14.7524 18.1571ZM11.2767 19.0443H7.91096C7.67535 19.0438 7.44947 18.9503 7.28237 18.7842C7.11527 18.6181 7.02046 18.3927 7.01851 18.1571V11.432C7.01851 10.9425 7.42032 10.5406 7.91096 10.5406C8.4016 10.5406 8.79812 10.9425 8.79812 11.432V17.27H11.2767C11.512 17.27 11.7376 17.3635 11.904 17.5298C12.0704 17.6962 12.1639 17.9219 12.1639 18.1571C12.1639 18.3924 12.0704 18.6181 11.904 18.7845C11.7376 18.9508 11.512 19.0443 11.2767 19.0443ZM34.8146 14.5376C34.8146 6.96555 27.2192 0.802979 17.8961 0.802979C8.5729 0.802979 0.977539 6.96555 0.977539 14.5376C0.977539 21.323 6.99736 27.0066 15.1256 28.0862C15.6766 28.2015 16.4252 28.4499 16.6187 28.9184C16.789 29.3413 16.7287 29.9969 16.6737 30.4442L16.4421 31.8812C16.3755 32.3053 16.1006 33.5509 17.9183 32.7906C19.7412 32.0303 27.6718 27.0415 31.2236 22.9535C33.6525 20.2942 34.8146 17.5618 34.8146 14.5376Z" fill="url(#paint0_linear_136_1823)"/>
</g>
<defs>
<linearGradient id="paint0_linear_136_1823" x1="0.977539" y1="1.057" x2="34.8146" y2="32.7792" gradientUnits="userSpaceOnUse">
<stop stop-color="#E72732"/>
<stop offset="1" stop-color="#FB8609"/>
</linearGradient>
<clipPath id="clip0_136_1823">
<rect width="33.837" height="33.837" fill="white" transform="translate(0.977539)"/>
</clipPath>
</defs>
</svg>
