<svg width="95" height="95" viewBox="0 0 95 95" fill="none" xmlns="http://www.w3.org/2000/svg">
<g clip-path="url(#clip0_154_1079)">
<path fill-rule="evenodd" clip-rule="evenodd" d="M47.4471 -0.163186C46.7422 -0.166986 46.3556 0.313714 46.2473 0.876115L35.8752 35.876C24.1712 39.3397 12.4567 42.7882 0.772646 46.2814C0.164646 46.4638 -0.165954 46.8267 -0.164054 47.4708C-0.162154 48.1139 0.403096 48.4987 0.927496 48.6602L35.84 59.0038C39.317 70.7486 42.775 82.503 46.2805 94.2269C46.4629 94.8349 46.8258 95.1655 47.4699 95.1636C48.1131 95.1617 48.4978 94.5965 48.6593 94.0721L59.0381 59.0408L94.1073 48.6507C94.8046 48.4236 95.159 48.1529 95.1618 47.448C95.1666 46.7431 94.6859 46.3564 94.1235 46.2481L59.0048 35.8409L48.6498 0.892264C48.4228 0.194964 48.152 -0.159386 47.4471 -0.162236V-0.163186ZM47.4994 40.3752C49.389 40.3752 51.2013 41.1259 52.5375 42.4621C53.8737 43.7983 54.6244 45.6106 54.6244 47.5002C54.6244 49.3899 53.8737 51.2022 52.5375 52.5384C51.2013 53.8746 49.389 54.6252 47.4994 54.6252C45.6097 54.6252 43.7974 53.8746 42.4612 52.5384C41.125 51.2022 40.3744 49.3899 40.3744 47.5002C40.3744 45.6106 41.125 43.7983 42.4612 42.4621C43.7974 41.1259 45.6097 40.3752 47.4994 40.3752V40.3752Z" fill="#EC3B29"/>
<path fill-rule="evenodd" clip-rule="evenodd" d="M80.3643 13.3947C80.0833 13.3958 79.8096 13.4837 79.5805 13.6465L59.5232 24.5335C60.3031 27.3151 61.1163 30.0767 62.0407 32.7766L70.4577 35.2704L81.2677 15.3574C81.6002 14.7029 81.6591 14.2611 81.1632 13.7595C80.9162 13.5097 80.6388 13.4004 80.3643 13.3947V13.3947ZM14.5283 13.4014C14.2794 13.427 14.0429 13.5486 13.8158 13.7766C13.3617 14.2326 13.4909 14.9043 13.7474 15.3888L24.5812 35.3464C27.3486 34.5702 30.1026 33.7618 32.8082 32.8412L35.2982 24.4404C28.6396 20.8209 21.9811 17.1919 15.3187 13.5961C15.0385 13.446 14.7772 13.3767 14.5283 13.4014V13.4014ZM70.4615 59.5191C67.6305 60.3095 64.828 61.1341 62.1015 62.0784C61.2911 64.8572 60.458 67.6312 59.6296 70.4052L79.6404 81.2694C80.2949 81.6019 80.7367 81.6608 81.2383 81.1649C81.7389 80.6699 81.6715 80.0572 81.3513 79.5822L70.4615 59.5191ZM24.491 59.6008C20.8525 66.2926 17.2083 72.9816 13.5945 79.6772C13.2933 80.2377 13.319 80.7279 13.775 81.182C14.231 81.6361 14.9026 81.5069 15.3871 81.2504L35.3447 70.4166C34.5581 67.6084 33.7383 64.8144 32.8044 62.0689C30.0304 61.2614 27.2602 60.4283 24.49 59.6008H24.491Z" fill="#EC3B29"/>
</g>
<defs>
<clipPath id="clip0_154_1079">
<rect width="95" height="95" fill="white"/>
</clipPath>
</defs>
</svg>
