<svg width="197" height="263" viewBox="0 0 197 263" fill="none" xmlns="http://www.w3.org/2000/svg">
<path d="M126.458 159.264C126.78 158.836 127.802 158.435 129.523 158.06C131.297 157.633 132.964 157.419 134.523 157.419C136.083 157.419 137.373 157.633 138.395 158.06L130.491 218.476H119.521L122.667 191.357L121.618 191.678C116.671 193.122 112.181 194.54 108.149 195.93L107.019 204.756C105.729 214.223 101.266 218.957 93.6303 218.957C90.888 218.957 88.764 218.155 87.2584 216.55C85.7528 214.892 85 212.779 85 210.212C85 204.488 89.0597 199.327 97.1792 194.727L101.293 159.906C102.314 159.21 103.659 158.622 105.326 158.141C106.992 157.659 108.606 157.419 110.165 157.419C111.724 157.419 112.746 157.445 113.23 157.499L109.036 189.431C112.316 188.255 116.456 186.998 121.457 185.66L123.393 185.179L126.458 159.264ZM90.646 209.008C90.646 210.72 91.4257 211.576 92.985 211.576C93.8454 211.576 94.41 211.335 94.6788 210.854C94.9477 210.319 95.1359 209.891 95.2434 209.57C95.4048 209.195 95.5392 208.714 95.6467 208.126C95.7543 207.537 95.8349 207.029 95.8887 206.601C95.9425 206.12 95.9962 205.505 96.05 204.756C96.1038 204.007 96.1576 203.419 96.2113 202.991L96.3726 201.787C92.5549 204.408 90.646 206.815 90.646 209.008Z" fill="#F77113"/>
<path d="M148.607 159.424C149.844 158.141 151.349 157.499 153.124 157.499C154.898 157.499 156.404 158.141 157.64 159.424C158.931 160.655 159.576 162.152 159.576 163.917C159.576 165.683 158.931 167.18 157.64 168.41C156.404 169.641 154.898 170.256 153.124 170.256C151.349 170.256 149.844 169.641 148.607 168.41C147.37 167.18 146.752 165.683 146.752 163.917C146.752 162.152 147.37 160.655 148.607 159.424ZM145.3 182.933C145.838 181.97 146.859 181.248 148.365 180.766C149.871 180.231 151.349 179.964 152.801 179.964C154.307 179.964 155.624 180.151 156.753 180.526C154.656 196.626 153.608 204.756 153.608 204.916C153.339 205.986 153.204 206.895 153.204 207.644C153.204 208.34 153.258 208.955 153.366 209.49C153.581 210.88 154.549 211.576 156.269 211.576C158.044 211.576 159.657 210.452 161.109 208.206C162.614 205.906 163.744 203.312 164.496 200.423C164.873 200.637 165.464 201.279 166.271 202.349C167.077 203.419 167.561 204.221 167.723 204.756C166.647 209.035 164.819 212.485 162.238 215.106C159.657 217.727 156.565 219.037 152.962 219.037C149.36 219.037 146.671 218.155 144.897 216.39C143.176 214.624 142.316 212.351 142.316 209.57C142.316 208.981 142.343 208.366 142.396 207.724L145.3 182.933Z" fill="#F77113"/>
<path d="M183.45 151.802C184.525 151.267 186.407 151 189.096 151C194.365 151 197 152.23 197 154.691C197 154.905 196.973 155.145 196.919 155.413L186.918 197.455H178.288L183.45 151.802ZM175.868 208.848C177.158 207.564 178.718 206.922 180.546 206.922C182.374 206.922 183.934 207.564 185.224 208.848C186.515 210.131 187.16 211.683 187.16 213.501C187.16 215.32 186.515 216.871 185.224 218.155C183.934 219.385 182.374 220 180.546 220C178.718 220 177.158 219.385 175.868 218.155C174.631 216.871 174.013 215.32 174.013 213.501C174.013 211.683 174.631 210.131 175.868 208.848Z" fill="#F77113"/>
<path fill-rule="evenodd" clip-rule="evenodd" d="M2.65043 196.218C3.12649 192.986 3.60339 189.754 4.08113 186.52L5.14281 186.598C5.93625 187.858 6.72968 189.127 7.61001 190.529C10.2094 184.132 12.693 178.014 15.1766 171.89C15.2232 171.776 15.3025 171.638 15.2761 171.545C12.7925 162.433 20.9195 158.939 25.2859 153.89C29.6713 149.097 32.3757 143.005 32.9897 136.537C33.8171 127.531 33.8549 118.436 35.0048 109.476C35.6244 104.634 38.0966 100.058 39.2868 95.2443C40.9568 88.5001 41.9316 81.5771 43.6947 74.8594C48.9528 54.7969 55.1554 35.0392 69.4472 19.2374C75.9879 11.9594 84.4374 6.66005 93.8371 3.94053C100.65 1.92546 107.381 -0.559372 114.447 0.111896C123.418 0.962 131.967 2.42544 139.923 8.30564C155.652 19.9275 162.887 36.5908 169.697 53.6446C173.099 62.3515 175.851 71.2991 177.929 80.4134C181.798 96.8614 176.981 111.609 167.674 125.184C167.49 125.454 167.092 125.577 166.527 125.94C166.417 125.167 166.333 124.577 166.302 124.363L151.254 130.24C151.174 129.489 151.18 128.731 151.27 127.981C154.995 117.915 156.042 107.361 156.434 96.7871C156.599 92.3904 156.318 87.3817 154.348 83.6514C151.909 79.0394 149.287 74.0534 143.098 72.2108C136.391 70.2147 130.084 66.8709 123.487 64.0662C123.448 64.5473 123.399 65.1997 123.353 65.7778C121.409 63.6015 119.475 61.4378 117.881 59.6507C116.097 60.7263 113.966 61.8093 112.057 63.1997C107.429 66.5102 104.069 71.301 102.533 76.78C103.357 76.5118 104.045 76.2838 105.473 75.8178L99.1291 83.3239L97.9377 81.7219C95.5776 82.7547 92.5902 87.6513 93.4504 90.5076C93.9403 92.1323 96.3408 93.2997 98.0599 94.3879C99.1442 95.0742 100.734 94.9811 101.798 95.6876C104.907 97.7518 107.489 100.002 106.375 104.569C105.135 109.881 104.191 115.257 103.547 120.673C103.205 123.316 103.305 125.997 103.842 128.607C104.415 131.299 107.759 132.717 110.677 131.969C111.714 131.702 112.692 131.204 114.707 130.422C113.209 131.849 112.432 132.586 111.655 133.319C111.696 133.658 111.731 134 111.77 134.338L125.733 133.234C123.88 128.222 122.277 123.877 120.669 119.53L121.523 119.077L134.8 133.153C133.561 135.493 132.281 137.92 130.99 140.345C128.808 138.673 127.51 135.09 123.448 136.945C123.495 136.253 123.54 135.551 123.622 134.31C119.097 135.343 114.824 136.335 110.538 137.28C109.783 137.446 108.953 137.294 108.218 137.5C106.643 137.945 103.756 138.616 103.784 139.038C103.93 141.247 103.393 144.076 106.454 145.106C109.306 146.069 112.143 147.078 115.481 148.24C107.925 153.167 100.899 153.288 93.3786 147.962C93.4472 150.659 94.2073 153.293 95.586 155.612C96.9647 157.931 98.9158 159.857 101.252 161.206C103.779 162.616 106.506 163.631 109.339 164.217C112.534 165.046 113.101 166.138 110.932 168.567C109.953 169.816 108.749 170.87 107.382 171.676C102.334 174.147 100.862 178.786 99.9011 183.668C99.5913 185.245 100.247 186.988 100.292 188.656C100.358 191.234 100.309 193.82 100.251 196.397C100.183 199.386 98.7538 202.13 102.281 204.924C105.24 207.265 102.936 211.326 101.808 215.261C101.249 214.269 100.769 213.77 100.873 213.546C103.732 207.451 98.4453 203.244 96.978 198.267C95.6305 193.693 92.1457 189.697 89.3132 185.649C88.5777 184.597 86.7944 184.187 85.4091 183.74C84.9998 183.606 84.3046 184.357 83.7403 184.704C84.0602 185.219 84.2642 185.964 84.729 186.216C85.9112 186.76 87.1255 187.232 88.3649 187.629C88.3385 188.115 88.312 188.598 88.2868 189.086C87.1509 189.255 86.0269 189.496 84.9217 189.807C83.7189 190.22 81.9268 190.593 81.5855 191.456C81.0288 192.864 81.2618 194.695 83.8524 194.394C84.3889 194.331 85.3423 195.167 85.5791 195.79C85.9846 196.851 85.8763 197.667 84.1761 197.864C83.5149 197.939 83.088 200.048 82.5275 201.291C82.2114 200.83 81.8978 200.374 81.5716 199.905C80.1699 202.563 80.2807 208.327 81.7089 209.686C84.0741 211.94 86.4204 214.22 88.7377 216.449C88.4468 216.865 88.3259 217.186 88.21 217.182C82.0099 217.064 79.7278 221.086 78.3866 226.264C77.9124 227.326 77.2922 228.317 76.544 229.208C74.9811 231.747 73.5101 234.343 71.8691 236.831C69.5064 240.414 69.883 244.322 70.2709 248.262C70.3171 248.502 70.2872 248.751 70.1853 248.973C68.2961 251.718 65.7924 254.219 64.6249 257.239C63.1854 260.962 60.2724 261.773 57.1944 262.78C54.6277 255.441 46.4025 256.987 41.0475 252.682C40.7301 253.289 40.2918 254.122 39.7251 255.221L37.4455 248.572L36.5639 248.638C36.3461 249.583 36.1282 250.528 35.9027 251.506C33.7151 250.218 31.5326 248.929 28.6674 247.238C28.2027 250.403 27.8627 252.719 27.4924 255.233C22.3288 258.296 23.5013 251.554 20.1777 250.243C19.5466 251.5 18.9997 252.798 18.5405 254.128C17.9284 256.293 16.8806 257.307 15.0456 255.443C10.3127 250.628 4.97028 246.149 3.8683 238.912C3.4915 236.253 2.44583 233.734 0.829317 231.59C-0.440173 229.837 0.931337 226.388 0.360822 223.87C-1.0875 217.478 2.28143 211.756 2.44012 205.626C2.52408 202.447 2.60803 199.268 2.692 196.088L2.65043 196.218ZM99.6807 108.531C97.5536 108.657 95.8017 108.75 94.0524 108.859C90.5953 109.074 87.1256 109.571 83.6837 109.443C79.8223 109.298 78.0818 110.45 77.8689 114.29C77.6825 115.975 77.7248 117.677 77.9949 119.349C78.8059 122.989 79.418 127.109 83.6157 128.426C87.5828 129.672 89.7427 126.42 91.9643 123.924C93.4869 122.215 94.5121 119.982 96.2287 118.546C99.3483 115.933 99.3168 112.557 99.6795 108.532L99.6807 108.531ZM59.3921 245.83C60.2837 247.146 61.0092 248.215 61.7346 249.283C62.0494 249.169 62.3643 249.057 62.6867 248.943C62.8496 247.003 63.0129 245.064 63.1766 243.126L62.0242 242.748C61.0696 243.87 60.1162 244.985 59.3908 245.831L59.3921 245.83ZM37.4468 109.717C37.8019 109.777 38.1571 109.843 38.5097 109.898C41.0663 105.112 41.1067 104.588 38.8876 103.282C38.3964 105.477 37.9228 107.597 37.4468 109.717Z" fill="url(#paint0_linear_148_1013)"/>
<path fill-rule="evenodd" clip-rule="evenodd" d="M128.481 105.081C133.191 103.922 136.91 103.007 140.779 102.058C138.492 104.541 136.579 106.921 134.356 108.961C130.497 112.501 122.872 110.525 119.901 105.898C118.304 103.411 115.619 101.625 113.396 99.4966C118.006 95.0887 126.117 93.2613 135.922 94.9854L125.652 99.1276L130.361 103.437L128.481 105.081Z" fill="#EC3B29"/>
<defs>
<linearGradient id="paint0_linear_148_1013" x1="90" y1="26" x2="85" y2="258.5" gradientUnits="userSpaceOnUse">
<stop stop-color="#ED4325"/>
<stop offset="1" stop-color="#FD8E06"/>
</linearGradient>
</defs>
</svg>
