<svg width="41" height="41" viewBox="0 0 41 41" fill="none" xmlns="http://www.w3.org/2000/svg">
<circle cx="20.5" cy="20.5" r="20.5" fill="#EC3B29"/>
<path d="M17.3997 13.3946C17.273 13.5189 17.1725 13.6665 17.1039 13.8291C17.0353 13.9916 17 14.1658 17 14.3417C17 14.5177 17.0353 14.6919 17.1039 14.8544C17.1725 15.0169 17.273 15.1645 17.3997 15.2888L22.7028 20.5012L17.3997 25.7135C17.1441 25.9647 17.0006 26.3054 17.0006 26.6606C17.0006 27.0158 17.1441 27.3565 17.3997 27.6077C17.6553 27.8589 18.0019 28 18.3633 28C18.7247 28 19.0713 27.8589 19.3268 27.6077L25.6003 21.4415C25.727 21.3173 25.8275 21.1696 25.8961 21.0071C25.9647 20.8446 26 20.6704 26 20.4945C26 20.3185 25.9647 20.1443 25.8961 19.9818C25.8275 19.8193 25.727 19.6716 25.6003 19.5474L19.3268 13.3812C18.8075 12.8707 17.9327 12.8707 17.3997 13.3946Z" fill="white"/>
</svg>
