<svg width="334" height="309" viewBox="0 0 334 309" fill="none" xmlns="http://www.w3.org/2000/svg">
<path d="M118.852 238.046C253.766 214.817 287.823 90.0191 287.823 90.0191" stroke="#EC3B29" stroke-width="6.89289" stroke-miterlimit="10" stroke-dasharray="11.03 11.03"/>
<path fill-rule="evenodd" clip-rule="evenodd" d="M90.9618 241.356L112.696 227.208L116.253 250.972" fill="#EC3B29"/>
<path fill-rule="evenodd" clip-rule="evenodd" d="M282.214 99.1388C281.383 98.4095 280.853 97.3964 280.73 96.2977C280.606 95.1989 280.897 94.0936 281.545 93.1979C283.307 89.9858 284.81 86.6399 286.484 83.3783C286.667 83.0725 286.758 82.7201 286.744 82.3639C286.731 82.0077 286.615 81.6629 286.41 81.3713C283.043 75.5206 279.702 69.6551 276.387 63.7748C276.101 63.3089 275.999 62.7528 276.102 62.2157C276.661 60.5662 277.37 58.9747 278.081 57.2018C282.874 61.9349 287.573 66.5721 292.362 71.3056C292.626 70.8413 292.832 70.5144 293.003 70.1705C295.123 65.9063 297.218 61.6288 299.376 57.3819C299.574 57.06 299.67 56.6856 299.65 56.3084C299.631 55.9311 299.498 55.5685 299.268 55.2684C298.225 53.623 297.309 51.8923 296.277 50.2381C296.053 49.9562 295.926 49.6101 295.913 49.2505C295.901 48.8909 296.004 48.5367 296.207 48.24C296.668 47.4865 297.01 46.6577 297.501 45.673C299.238 47.3445 300.895 48.8732 302.48 50.4744C304.442 52.5632 307.104 53.8567 309.959 54.108C312.136 54.2992 314.3 54.6794 316.684 55.0022C316.013 56.3567 315.444 57.5915 314.777 58.7712C314.648 59.0018 314.149 59.0747 313.808 59.1246C311.919 59.4044 310.02 59.632 308.136 59.9368C307.746 59.9984 307.212 60.2155 307.059 60.5208C304.723 65.1285 302.44 69.7613 300.029 74.6176C306.306 75.2978 312.412 75.9533 318.654 76.6281C317.529 78.5449 316.501 80.3706 315.375 82.1373C315.193 82.4216 314.593 82.496 314.173 82.5594C308.02 83.4982 301.869 84.4405 295.71 85.3216C295.355 85.3492 295.014 85.4773 294.728 85.6908C294.442 85.9043 294.223 86.1945 294.095 86.5277C292.424 89.9709 290.608 93.3449 289.041 96.8333C288.007 99.1343 286.493 100.294 283.956 100C283.38 99.7148 282.797 99.4268 282.214 99.1388Z" fill="#EC3B29"/>
<path d="M64.4915 139.108C74.9989 140.073 84.6838 124.071 84.6903 116.378C84.6566 112.881 80.7683 109.875 82.3346 106.392C83.1359 104.476 86.5555 102.407 87.9387 100.671C94.9991 92.5145 86.3831 90.6915 78.7106 91.3246C68.3832 92.4594 65.9851 90.5152 59.1535 85.0363C53.2303 80.4394 46.1395 81.2524 39.8451 85.9186C35.9158 89.0316 35.5875 90.2527 30.0978 89.1564C26.1716 88.4231 22.1734 86.4653 18.8255 89.7585C10.0918 98.5999 28.3681 115.193 33.6362 120.308C38.7228 125.248 43.9528 132.636 50.6041 136.015C54.0206 137.793 58.7466 138.533 62.6729 139.267" fill="#F3C7AE"/>
<path d="M70.6893 138.609C81.8365 139.633 92.111 122.657 92.1173 114.496C92.0821 110.786 87.9569 107.597 89.6186 103.902C90.469 101.869 94.0961 99.6745 95.564 97.832C103.054 89.1791 93.914 87.2451 85.7747 87.9164C74.8193 89.1205 72.2742 87.0578 65.0272 81.2453C58.7437 76.3683 51.2208 77.2309 44.5435 82.1814C40.3748 85.4841 40.0264 86.7796 34.2029 85.6161C30.0376 84.8381 25.7961 82.7612 22.2444 86.2548C12.9792 95.6344 32.3678 113.237 37.9568 118.664C43.353 123.905 48.9011 131.742 55.9575 135.328C59.582 137.214 64.5959 137.999 68.7615 138.777" fill="white"/>
<path fill-rule="evenodd" clip-rule="evenodd" d="M12.0819 93.8315C11.2137 93.9949 9.75195 93.6832 9.20059 92.9906C8.71451 92.3696 9.22693 91.7285 9.16184 91.0702C9.06741 89.7049 8.21264 88.9438 10.21 88.3168C12.3345 87.6237 12.4092 89.4955 12.8136 90.7604C13.2083 91.9853 14.1773 93.0185 12.3366 93.7C12.1711 93.7828 11.993 93.8444 11.8076 93.8831" fill="#F3C7AE"/>
<path fill-rule="evenodd" clip-rule="evenodd" d="M11.4579 83.1109C10.8157 84.1741 8.94208 85.3823 7.4596 85.267C6.1385 85.1551 5.78243 83.9864 4.82934 83.4003C2.89313 82.1429 1.01651 82.2744 2.15502 79.5786C3.33144 76.6846 5.93144 78.4656 8.0405 79.3018C10.086 80.1085 12.4429 80.1283 11.5332 82.7158C11.4805 82.9697 11.3869 83.2158 11.2551 83.4466" fill="#F3C7AE"/>
<path fill-rule="evenodd" clip-rule="evenodd" d="M16.033 87.1821C15.2319 87.1219 14.0597 86.5121 13.7914 85.784C13.5588 85.1331 14.1947 84.6964 14.338 84.1115C14.6686 82.9061 14.1582 82.048 16.0776 81.9683C18.1271 81.8623 17.6265 83.5007 17.5946 84.6906C17.5663 85.8439 18.0931 86.9643 16.2933 87.1272C16.125 87.1604 15.9522 87.1725 15.7801 87.1631" fill="#F3C7AE"/>
<path fill-rule="evenodd" clip-rule="evenodd" d="M12.9012 93.308C12.0331 93.4713 10.5713 93.1597 10.0199 92.4671C9.53384 91.8461 10.0463 91.2049 9.98118 90.5466C9.88674 89.1814 9.03198 88.4203 11.0294 87.7932C13.1539 87.1002 13.2285 88.9719 13.633 90.2369C14.0276 91.4618 14.9966 92.4949 13.156 93.1765C12.9904 93.2593 12.8123 93.3209 12.627 93.3596" fill="#F3C7AE"/>
<path fill-rule="evenodd" clip-rule="evenodd" d="M12.4794 82.1647C11.8371 83.2279 9.96356 84.4361 8.48108 84.3208C7.15998 84.2089 6.80392 83.0402 5.85083 82.4542C3.91462 81.1967 2.038 81.3283 3.1765 78.6324C4.35293 75.7384 6.95292 77.5194 9.06198 78.3557C11.1075 79.1624 13.4643 79.1821 12.5547 81.7696C12.502 82.0236 12.4084 82.2696 12.2766 82.5004" fill="#F3C7AE"/>
<path fill-rule="evenodd" clip-rule="evenodd" d="M16.8758 86.997C16.0746 86.9368 14.9025 86.327 14.6342 85.5989C14.4016 84.948 15.0375 84.5113 15.1808 83.9265C15.5114 82.7211 15.001 81.863 16.9204 81.7833C18.9699 81.6772 18.4692 83.3157 18.4374 84.5056C18.4091 85.6588 18.9359 86.7792 17.136 86.9421C16.9678 86.9754 16.795 86.9875 16.6228 86.978" fill="#F3C7AE"/>
<path fill-rule="evenodd" clip-rule="evenodd" d="M114.688 154.545C119.864 151.955 129.938 151.347 135.068 154.796C139.615 157.903 137.82 162.916 139.759 167.011C143.523 175.576 150.752 178.924 139.424 186.49C127.434 194.704 122.627 182.863 117.112 175.492C111.753 168.359 103.164 163.476 113.364 155.841C114.231 155.017 115.227 154.305 116.322 153.727" fill="#F3C7AE"/>
<path fill-rule="evenodd" clip-rule="evenodd" d="M116.564 151.044C121.74 148.454 131.814 147.846 136.944 151.295C141.491 154.402 139.696 159.416 141.635 163.51C145.397 172.075 152.628 175.423 141.299 182.988C129.31 191.203 124.503 179.362 118.988 171.991C113.629 164.858 105.04 159.975 115.24 152.339C116.107 151.515 117.103 150.804 118.199 150.226" fill="white"/>
<path fill-rule="evenodd" clip-rule="evenodd" d="M116.584 121.674C118.824 121.477 122.406 122.624 123.573 124.505C124.598 126.192 123.102 127.679 123.053 129.354C122.852 132.818 124.761 134.949 119.527 136.033C113.951 137.254 114.364 132.519 113.753 129.232C113.152 126.048 111.043 123.203 115.901 121.943C116.344 121.775 116.812 121.664 117.291 121.612" fill="#F3C7AE"/>
</svg>
