<svg width="340" height="348" viewBox="0 0 340 348" fill="none" xmlns="http://www.w3.org/2000/svg">
<circle cx="174.828" cy="181.938" r="164.891" fill="url(#paint0_linear_305_6425)"/>
<circle cx="169" cy="179" r="167.5" stroke="#FFE3DA" stroke-width="3"/>
<path d="M304.728 170.093C304.728 161.053 301.563 153.368 295.233 147.04C288.903 140.711 281.217 137.547 272.174 137.547H261.323V202.64H272.174C281.217 202.64 288.903 199.476 295.233 193.147C301.563 186.819 304.728 179.134 304.728 170.093ZM337.282 170.093C337.282 188.062 330.924 203.403 318.208 216.117C305.491 228.83 290.147 235.187 272.174 235.187H261.323V240.611C261.323 251.008 257.593 259.936 250.133 267.395C242.672 274.853 233.743 278.583 223.344 278.583H103.979C93.5804 278.583 84.6506 274.853 77.1904 267.395C69.7301 259.936 66 251.008 66 240.611V115.849C66 112.911 67.0738 110.368 69.2215 108.221C71.3691 106.074 73.9124 105 76.8513 105H272.174C290.147 105 305.491 111.357 318.208 124.07C330.924 136.784 337.282 152.125 337.282 170.093Z" fill="url(#paint1_linear_305_6425)"/>
<rect x="115.788" y="136" width="95.9653" height="95.9653" rx="47.9826" fill="white"/>
<path d="M156.399 169.034C153.83 167.512 151.822 165.199 150.677 162.441C149.532 159.683 149.312 156.628 150.048 153.734C150.784 150.84 152.438 148.263 154.762 146.388C157.086 144.512 159.955 143.44 162.94 143.332C165.924 143.224 168.863 144.085 171.317 145.787C173.77 147.489 175.607 149.94 176.551 152.773C177.496 155.606 177.497 158.668 176.555 161.502C175.613 164.336 173.778 166.788 171.326 168.492" stroke="#F4590E" stroke-miterlimit="10" stroke-dasharray="2 2"/>
<path d="M153.974 171.666C150.683 169.485 148.236 166.245 147.041 162.482C145.846 158.72 145.974 154.662 147.403 150.982C148.832 147.302 151.477 144.221 154.899 142.252C158.321 140.283 162.313 139.543 166.213 140.156C170.113 140.769 173.686 142.697 176.338 145.621C178.991 148.544 180.564 152.287 180.796 156.228C181.028 160.169 179.906 164.071 177.614 167.286C175.323 170.5 172.001 172.834 168.2 173.901" stroke="#F4590E" stroke-miterlimit="10" stroke-dasharray="2 2"/>
<path d="M138.688 219.928L138.079 230.033L142.459 230.297L143.068 220.192L138.688 219.928Z" fill="#F4590E"/>
<path fill-rule="evenodd" clip-rule="evenodd" d="M139.2 212.713C141.356 212.348 141.354 212.349 141.57 210.156C141.569 209.901 141.608 209.648 141.685 209.406C143.156 206.127 142.14 202.858 141.649 199.592C140.993 195.221 140.241 190.886 140.393 186.407C140.517 182.782 141.963 179.728 143.544 176.666C144.679 174.471 144.496 174.877 145.729 172.734C145.862 172.503 146.58 170.969 146.944 170.895C146.784 171.166 148.184 169.316 147.937 169.735C148.211 169.624 148.523 168.132 148.184 169.316C148.648 168.667 148.784 169.208 149.203 168.531C150.391 166.611 152.131 165.891 154.342 165.584C156.091 165.342 157.836 165.012 159.526 163.966C162.61 162.057 166.056 162.506 169.261 164.028C174.931 166.72 179.354 170.721 182.057 176.5C182.697 177.87 183.548 179.146 184.349 180.437C187.292 185.181 188.039 190.339 186.737 195.668C186.008 198.653 184.645 201.488 183.493 204.361C183.275 204.904 182.713 205.311 182.19 205.92C182.012 205.498 181.832 205.256 181.816 205.003C181.606 201.385 181.401 197.764 181.235 194.142C181.191 193.193 181.502 192.413 182.285 191.704C183.624 190.49 183.699 189.652 182.894 188.106C182.71 187.752 182.323 187.504 181.928 187.106C181.572 187.859 181.319 188.393 181.066 188.926C180.941 188.926 180.815 188.926 180.689 188.926C181.056 187.028 180.889 185.282 179.524 183.806C178.436 184.938 177.876 186.004 178.378 187.653C178.951 189.536 179.056 191.557 179.453 193.5C179.632 194.368 180.057 195.182 180.309 196.039C180.395 196.327 180.287 196.671 180.259 197.135C178.755 196.405 178.467 195.099 178.136 193.936C177.61 192.085 177.66 189.988 176.812 188.328C175.057 184.888 173.969 181.089 170.228 178.749C167.087 176.785 163.951 175.8 160.37 175.846C159.792 175.853 159.218 176.05 158.638 176.101C158.204 176.14 157.758 176.035 157.328 176.087C156.91 176.134 156.503 176.252 156.124 176.435C155.592 176.7 155.104 177.053 154.488 177.122C153.829 178.164 153.162 179.203 152.516 180.253C152.326 180.521 152.191 180.824 152.118 181.145C151.889 182.686 151.793 184.253 151.473 185.773C151.222 186.963 151.723 187.683 152.626 188.177C155.222 189.598 155.993 191.849 155.81 194.642C155.73 195.86 155.838 197.09 155.879 198.314C155.909 199.248 156.402 199.798 157.325 199.961C157.612 200.033 157.902 200.088 158.196 200.125C159.483 200.194 160.23 200.821 160.489 202.111C160.54 202.368 161.013 202.759 161.241 202.728C163.036 202.509 164.819 202.196 166.581 201.792C167.17 201.645 167.631 200.98 168.252 200.468C168.413 200.731 168.821 201.157 168.924 201.647C168.991 201.964 168.671 202.642 168.426 202.695C167.688 202.853 166.86 202.639 166.147 202.843C165.355 203.07 164.649 203.599 163.906 203.997C163.97 204.122 164.034 204.247 164.098 204.372C164.512 204.24 164.925 204.107 165.339 203.975C165.395 204.024 165.45 204.073 165.506 204.122C164.903 204.693 164.353 205.335 163.685 205.816C162.771 206.477 162.445 207.083 163.53 207.838C161.936 209.456 162.503 212.482 163.886 213.421C164.844 214.071 166.452 214.038 167.715 213.88C168.768 213.749 169.081 213.824 169.315 214.897C169.713 216.716 170.393 218.473 170.871 220.277C171.147 221.32 171.238 222.324 169.845 222.832C168.974 223.151 168.01 225.478 168.126 226.402C168.364 228.282 168.573 230.165 168.522 231.912C168.358 232.168 168.048 232.429 168.058 232.678C168.091 233.474 168.243 234.265 168.348 235.058L168.402 234.961C168.003 234.37 167.277 233.781 167.272 233.186C167.26 231.874 166.66 230.941 165.936 229.994C164.944 228.695 163.963 227.388 163.001 226.113C163.024 227.219 163.047 228.321 163.073 229.629C162.301 228.593 162.919 226.969 161.195 226.683C161.219 227.802 161.648 229.041 160.052 229.398C160.486 229.955 160.855 230.426 161.224 230.898C161.168 230.966 161.113 231.035 161.058 231.104C160.763 230.948 160.467 230.792 160.164 230.632C160.007 231.14 159.878 231.656 159.777 232.178C159.672 232.919 159.61 233.567 160.373 234.187C161.556 235.151 162.55 236.347 163.703 237.526C162.318 237.892 162.318 237.892 161.104 239.758C161.503 238.705 161.952 237.646 161.011 236.666C160.865 236.514 160.617 236.334 160.448 236.362C160.341 236.396 160.243 236.455 160.163 236.535C160.084 236.615 160.025 236.713 159.992 236.82C159.783 238.271 159.655 239.734 159.433 241.183C159.287 242.139 159.358 243.181 158.321 243.826C158.003 244.023 157.929 244.608 157.606 245.318C156.651 245.637 156.746 247.006 156.353 248.074C155.912 249.274 155.53 250.494 155.066 251.872C150.87 249.043 147.085 249.527 143.509 252.327C142.891 251.598 142.327 250.933 141.765 250.268C141.64 250.324 141.515 250.381 141.39 250.438C141.437 251.324 141.484 252.209 141.55 253.443C141.206 253.182 140.868 253.04 140.709 252.786C139.718 251.211 138.797 249.591 137.769 248.042C137.603 247.789 136.923 247.61 136.649 247.745L139.2 212.713ZM139.747 229.265C140.012 229.2 140.39 229.626 140.726 229.808C140.938 229.924 141.237 230.146 141.374 230.077C141.607 229.926 141.774 229.691 141.839 229.421C141.891 229.129 141.879 228.83 141.804 228.544C141.485 227 141.15 225.461 140.81 223.922C140.776 223.762 140.711 223.538 140.591 223.477C139.33 222.836 139.545 221.617 139.41 220.536C139.4 220.451 139.418 220.342 139.373 220.288L139.747 229.265ZM154.903 206.949C155.053 205.835 155.228 204.855 155.299 203.868C155.33 203.453 155.186 202.678 155.044 202.66C154.487 202.59 153.921 202.669 153.405 202.89C153.18 202.991 152.967 203.657 153.087 203.891C153.644 204.977 154.322 206 154.901 206.95L154.903 206.949ZM157.142 243.396C158.846 242.314 159.094 240.925 158.929 239.014C158.271 240.621 157.748 241.905 157.14 243.397L157.142 243.396Z" fill="#F4590E"/>
<path fill-rule="evenodd" clip-rule="evenodd" d="M155.876 188.945C155.827 187.72 156.364 187.016 157.364 186.506C158.559 185.896 159.665 185.109 160.857 184.49C161.174 184.326 161.663 184.498 162.076 184.516C161.905 184.843 161.706 185.155 161.482 185.448C160.951 186.039 160.377 186.591 159.663 187.317C162.389 187.653 164.747 187.942 167.104 188.232C167.143 188.329 167.183 188.426 167.223 188.523C165.91 189.265 164.595 190.008 163.281 190.75C163.327 190.863 163.373 190.975 163.418 191.086L164.592 191.444C164.635 192.719 164.248 193.19 163.072 193.14C161.414 193.071 159.766 192.887 158.571 191.533C158.201 191.142 157.91 190.684 157.713 190.183C157.258 188.856 157.295 188.843 155.876 188.945Z" fill="#F4590E"/>
<path fill-rule="evenodd" clip-rule="evenodd" d="M162.065 195.322C164.275 195.381 164.503 197.294 165.61 198.469C164.009 198.894 162.319 197.341 162.065 195.322Z" fill="#F4590E"/>
<path fill-rule="evenodd" clip-rule="evenodd" d="M147.659 200.865C146.748 205.713 145.979 213.4 144.887 217.965C143.812 222.258 144.602 227.209 143.781 231.79C143.107 233.928 141.332 236.273 141.184 238.715C140.989 241.972 142.98 245.088 143.055 248.361C143.212 250.278 141.913 253.74 143.444 255.467C146.472 259.463 151.207 253.211 155.212 254.542C157.893 255.248 156.867 258.727 160.032 255.922C162.3 254.424 161.988 250.592 161.863 248.133C161.121 242.368 160.124 236.316 158.567 230.502C156.838 223.044 156.145 216.464 155.789 208.816C155.73 205.272 158.105 197.516 152.405 197.172" fill="#F4590E"/>
<path fill-rule="evenodd" clip-rule="evenodd" d="M168.726 226.936C169.106 229.683 170.217 231.657 168.696 234.289C167.208 236.378 164.527 235.672 162.817 236.931C161.107 238.19 158.576 244.029 155.482 241.119C153.936 239.664 155.882 229.975 156.03 227.533C156.291 223.191 156.575 213.947 163.344 214.627C168.756 215.226 167.196 223.031 168.883 226.674" fill="#F4590E"/>
<path d="M156.538 159.953L169.644 159.806L170.447 152.288L165.983 155.427L163.278 152.297L160.57 155.42L156.421 152.288L156.538 159.953Z" fill="#F4590E"/>
<path d="M156.477 151.583C156.921 151.399 157.131 150.89 156.948 150.447C156.764 150.003 156.255 149.792 155.811 149.976C155.368 150.16 155.157 150.668 155.341 151.112C155.524 151.556 156.033 151.767 156.477 151.583Z" fill="#F4590E"/>
<path d="M163.427 151.328C163.88 151.14 164.098 150.629 163.914 150.185C163.73 149.741 163.214 149.533 162.761 149.721C162.309 149.909 162.09 150.42 162.274 150.864C162.458 151.308 162.974 151.515 163.427 151.328Z" fill="#F4590E"/>
<path d="M170.664 151.29C171.108 151.106 171.319 150.597 171.135 150.154C170.951 149.71 170.443 149.499 169.999 149.683C169.555 149.867 169.344 150.375 169.528 150.819C169.712 151.263 170.221 151.474 170.664 151.29Z" fill="#F4590E"/>
<rect x="113.788" y="139" width="100" height="100" rx="50" stroke="white" stroke-width="4"/>
<path fill-rule="evenodd" clip-rule="evenodd" d="M221.686 76.8603C212.164 71.9156 206 64.0177 206 55.1187C206 40.1414 223.461 28 245 28C266.539 28 284 40.1414 284 55.1187C284 70.0959 266.539 82.2373 245 82.2373C238.597 82.2373 232.554 81.1643 227.223 79.2627C226.042 81.305 223.758 83.3935 219.765 83.64C220.66 82.2973 221.774 79.7032 221.686 76.8603Z" fill="#FA7F0D"/>
<path d="M234.088 54.3957C234.482 54.0021 234.957 53.8053 235.515 53.8053C236.073 53.8053 236.548 54.0021 236.942 54.3957C237.335 54.7893 237.532 55.2649 237.532 55.8225C237.532 56.3801 237.335 56.8557 236.942 57.2493C236.548 57.6265 236.073 57.8151 235.515 57.8151C234.957 57.8151 234.482 57.6265 234.088 57.2493C233.711 56.8557 233.522 56.3801 233.522 55.8225C233.522 55.2649 233.711 54.7893 234.088 54.3957ZM243.025 54.3957C243.418 54.0021 243.894 53.8053 244.452 53.8053C245.009 53.8053 245.485 54.0021 245.878 54.3957C246.272 54.7893 246.469 55.2649 246.469 55.8225C246.469 56.3801 246.272 56.8557 245.878 57.2493C245.485 57.6265 245.009 57.8151 244.452 57.8151C243.894 57.8151 243.418 57.6265 243.025 57.2493C242.648 56.8557 242.459 56.3801 242.459 55.8225C242.459 55.2649 242.648 54.7893 243.025 54.3957ZM251.962 54.3957C252.355 54.0021 252.831 53.8053 253.388 53.8053C253.946 53.8053 254.421 54.0021 254.815 54.3957C255.209 54.7893 255.405 55.2649 255.405 55.8225C255.405 56.3801 255.209 56.8557 254.815 57.2493C254.421 57.6265 253.946 57.8151 253.388 57.8151C252.831 57.8151 252.355 57.6265 251.962 57.2493C251.584 56.8557 251.396 56.3801 251.396 55.8225C251.396 55.2649 251.584 54.7893 251.962 54.3957Z" fill="white"/>
<path fill-rule="evenodd" clip-rule="evenodd" d="M111.592 74.1763C126.047 66.6696 135.405 54.6795 135.405 41.1695C135.405 18.4322 108.897 -8.03468e-06 76.1981 -5.17604e-06C43.4991 -2.31739e-06 16.9912 18.4322 16.9912 41.1695C16.9912 63.9069 43.4991 82.3391 76.1982 82.3391C85.919 82.3391 95.0927 80.7101 103.186 77.8233C104.978 80.9237 108.446 84.0943 114.507 84.4686C113.15 82.4301 111.458 78.4921 111.592 74.1763Z" fill="#EE5626"/>
<path d="M58.5359 39.7529C59.1334 39.1554 59.8554 38.8566 60.7019 38.8566C61.5484 38.8566 62.2704 39.1554 62.868 39.7529C63.4655 40.3504 63.7643 41.0725 63.7643 41.919C63.7643 42.7655 63.4655 43.4875 62.868 44.085C62.2704 44.6576 61.5484 44.9439 60.7019 44.9439C59.8554 44.9439 59.1334 44.6576 58.5359 44.085C57.9632 43.4875 57.6769 42.7655 57.6769 41.919C57.6769 41.0725 57.9632 40.3504 58.5359 39.7529ZM72.1028 39.7529C72.7003 39.1554 73.4223 38.8566 74.2688 38.8566C75.1153 38.8566 75.8374 39.1554 76.4349 39.7529C77.0324 40.3504 77.3312 41.0725 77.3312 41.919C77.3312 42.7655 77.0324 43.4875 76.4349 44.085C75.8374 44.6576 75.1153 44.9439 74.2688 44.9439C73.4223 44.9439 72.7003 44.6576 72.1028 44.085C71.5302 43.4875 71.2439 42.7655 71.2439 41.919C71.2439 41.0725 71.5302 40.3504 72.1028 39.7529ZM85.6697 39.7529C86.2673 39.1554 86.9893 38.8566 87.8358 38.8566C88.6823 38.8566 89.4043 39.1554 90.0018 39.7529C90.5993 40.3504 90.8981 41.0725 90.8981 41.919C90.8981 42.7655 90.5993 43.4875 90.0018 44.085C89.4043 44.6576 88.6823 44.9439 87.8358 44.9439C86.9893 44.9439 86.2673 44.6576 85.6697 44.085C85.0971 43.4875 84.8108 42.7655 84.8108 41.919C84.8108 41.0725 85.0971 40.3504 85.6697 39.7529Z" fill="white"/>
<defs>
<linearGradient id="paint0_linear_305_6425" x1="-13.8568" y1="17.0469" x2="349.737" y2="333.053" gradientUnits="userSpaceOnUse">
<stop stop-color="#FFD4B5"/>
<stop offset="0.489583" stop-color="#FFC0B0" stop-opacity="0.510417"/>
<stop offset="1" stop-color="#FFA869" stop-opacity="0"/>
</linearGradient>
<linearGradient id="paint1_linear_305_6425" x1="201.641" y1="105" x2="201.641" y2="278.583" gradientUnits="userSpaceOnUse">
<stop stop-color="#FF7001"/>
<stop offset="1" stop-color="#E94219"/>
</linearGradient>
</defs>
</svg>
