<svg width="121" height="117" viewBox="0 0 121 117" fill="none" xmlns="http://www.w3.org/2000/svg">
<path d="M28.9409 37.9951C20.0871 44.2556 24.9624 64.8829 30.895 71.6541C33.6195 74.7069 38.9402 74.72 40.4198 78.8436C41.2802 81.0712 40.2376 85.2043 40.5104 87.6676C41.3564 99.6186 49.4126 95.3925 54.8452 89.6445C61.9395 81.6588 65.2907 81.7462 74.7914 81.9431C82.9103 81.9788 87.7551 76.4661 89.0115 68.103C89.6413 62.7063 88.9524 61.4102 94.0351 58.6601C97.631 56.6486 102.228 55.6655 102.27 50.5037C102.186 36.8179 75.2759 34.5891 67.2621 33.6538C59.5243 32.7508 49.7858 29.7906 42.0448 31.3187C38.0361 32.0666 33.8176 34.6131 30.2214 36.6246" fill="#F3C7AE"/>
<path d="M24.6877 30.7759C15.2948 37.4176 20.467 59.3008 26.7607 66.4833C29.651 69.7227 35.2958 69.7364 36.8653 74.111C37.7781 76.4746 36.6722 80.8586 36.9614 83.4724C37.8588 96.1513 46.4055 91.668 52.1689 85.5704C59.6943 77.0989 63.2503 77.1912 73.3291 77.4004C81.9423 77.4386 87.0822 71.5899 88.4147 62.7178C89.0829 56.9923 88.352 55.6171 93.7442 52.7002C97.5591 50.5663 102.435 49.5233 102.48 44.0474C102.392 29.5284 73.8431 27.1638 65.3412 26.1716C57.1325 25.2136 46.802 22.0737 38.589 23.6943C34.3363 24.4877 29.8606 27.1893 26.0458 29.3238" fill="white"/>
<path fill-rule="evenodd" clip-rule="evenodd" d="M93.1522 74.6474C93.2202 73.8122 93.9393 72.5872 94.8033 72.3033C95.5757 72.0563 96.0972 72.7182 96.7936 72.8634C98.2265 73.2012 99.2438 72.6644 99.3467 74.6642C99.4828 76.7996 97.533 76.2869 96.1191 76.2605C94.7488 76.2383 93.4204 76.7935 93.2188 74.9183C93.1785 74.7431 93.1633 74.5631 93.1737 74.3836" fill="#F3C7AE"/>
<path fill-rule="evenodd" clip-rule="evenodd" d="M107.258 59.8908C107.907 61.3936 107.79 64.1657 106.56 65.4466C105.454 66.5805 103.948 65.9169 102.614 66.3049C99.8335 67.0359 98.5711 68.8942 96.5606 65.5396C94.3678 61.9823 98.2008 61.0788 100.664 59.8283C103.047 58.6119 104.829 56.4355 106.895 59.4845C107.126 59.7497 107.317 60.0463 107.463 60.3654" fill="#F3C7AE"/>
<path fill-rule="evenodd" clip-rule="evenodd" d="M107.092 58.7047C107.741 60.2075 107.624 62.9796 106.394 64.2605C105.288 65.3945 103.782 64.7308 102.448 65.1188C99.6675 65.8499 98.4051 67.7081 96.3946 64.3535C94.2018 60.7962 98.0347 59.8927 100.498 58.6422C102.881 57.4258 104.663 55.2494 106.729 58.2984C106.96 58.5636 107.151 58.8602 107.297 59.1793" fill="#FBE3C6"/>
<path fill-rule="evenodd" clip-rule="evenodd" d="M93.2128 73.9138C93.2807 73.0786 93.9999 71.8536 94.8638 71.5698C95.6362 71.3227 96.1578 71.9847 96.8541 72.1298C98.2871 72.4677 99.3044 71.9308 99.4073 73.9306C99.5433 76.0661 97.5936 75.5533 96.1796 75.5269C94.8094 75.5048 93.4809 76.06 93.2793 74.1847C93.239 74.0095 93.2238 73.8295 93.2342 73.65" fill="#FBE3C6"/>
<path fill-rule="evenodd" clip-rule="evenodd" d="M93.4054 24.401C93.284 25.3041 92.4333 26.593 91.479 26.8519C90.6262 27.0759 90.0978 26.3275 89.3501 26.1301C87.8135 25.6817 86.6784 26.2065 86.681 24.0292C86.655 21.7029 88.7428 22.3707 90.2765 22.4801C91.7628 22.5831 93.2372 22.0554 93.349 24.1029C93.3827 24.2955 93.3888 24.492 93.3671 24.6863" fill="#F3C7AE"/>
<path fill-rule="evenodd" clip-rule="evenodd" d="M93.1134 23.4031C92.992 24.3063 92.1413 25.5952 91.187 25.854C90.3342 26.0781 89.8059 25.3296 89.0581 25.1323C87.5215 24.6838 86.3864 25.2086 86.389 23.0313C86.363 20.7051 88.4508 21.3728 89.9846 21.4822C91.4708 21.5852 92.9452 21.0576 93.057 23.1051C93.0907 23.2977 93.0968 23.4941 93.0751 23.6884" fill="#FBE3C6"/>
</svg>
