<svg width="224" height="258" viewBox="0 0 224 258" fill="none" xmlns="http://www.w3.org/2000/svg">
<path opacity="0.7" d="M135.058 57.4859C151.212 45.6734 175.443 38.2903 181.317 65.6062C183.519 75.9419 180.583 83.3239 186.457 93.6607C190.863 103.257 197.47 112.117 203.344 120.237C215.826 138.693 224.639 158.627 223.17 181.513C221.702 199.23 201.142 216.949 190.863 232.451C180.583 248.693 168.1 260.506 147.54 256.815C137.995 255.338 131.387 248.693 121.841 248.693C112.294 248.693 105.688 253.861 97.6111 256.815C69.7095 264.197 78.5204 228.022 78.5204 209.566V138.691C78.5204 115.805 77.786 96.6109 92.4713 78.1537C105.688 62.6502 124.778 72.2486 135.793 56.0067" fill="#DADADA"/>
<path d="M128.447 54.5203C144.297 42.9398 168.071 35.7016 173.835 62.4816C175.996 72.6191 173.115 79.8527 178.88 89.9857C183.202 99.3945 189.686 108.08 195.45 116.041C207.697 134.136 216.343 153.679 214.902 176.116C213.461 193.486 193.289 210.858 183.203 226.056C173.113 241.98 160.869 253.56 140.697 249.941C131.332 248.494 124.848 241.979 115.482 241.979C106.116 241.979 99.6333 247.047 91.7134 249.941C64.3366 257.178 72.982 221.713 72.982 203.618V134.135C72.982 111.697 72.2611 92.8795 86.6703 74.784C99.6378 59.5845 118.369 68.9944 129.176 53.0706" fill="#EC3B29"/>
<path d="M121.651 56.7693C136.726 45.7533 159.338 38.8703 164.82 64.3421C166.872 73.9804 164.135 80.8656 169.617 90.505C173.728 99.4556 179.895 107.717 185.38 115.29C197.028 132.502 205.251 151.088 203.88 172.436C202.51 188.959 183.324 205.482 173.732 219.94C164.138 235.087 152.49 246.103 133.303 242.661C124.395 241.285 118.229 235.087 109.321 235.087C100.413 235.087 63.2203 239.906 55.678 242.661C29.6394 249.546 10.0386 229.159 2.03209 201.619C-5.97447 174.08 11.44 163.896 23.6528 132.504C35.8656 101.111 37.1698 93.2593 50.8812 76.0492C63.2149 61.5912 112.061 70.5406 122.339 55.3949" fill="white"/>
<path d="M117.18 114.102C117.18 118.493 106.996 112.983 94.4331 112.983C81.8703 112.983 71.6865 118.493 71.6865 114.102C71.6865 109.71 81.8703 106.15 94.4331 106.15C106.996 106.15 117.18 109.71 117.18 114.102Z" fill="#DADADA"/>
<g filter="url(#filter0_d_148_1019)">
<path d="M94.4333 107.529C86.8465 101.094 79.8142 94.0399 73.41 86.4396C63.7994 75.0258 52.3867 58.0276 52.3867 41.8297C52.3826 33.5573 54.8465 25.4696 59.4667 18.5902C64.0869 11.7107 70.6558 6.34877 78.3419 3.18288C86.028 0.0170026 94.4858 -0.810491 102.645 0.805127C110.804 2.42075 118.298 6.40685 124.178 12.259C128.093 16.1344 131.196 20.7434 133.308 25.8192C135.419 30.895 136.497 36.3368 136.48 41.8297C136.48 58.0276 125.067 75.0258 115.457 86.4396C109.052 94.0399 102.02 101.094 94.4333 107.529ZM94.4333 23.9117C89.6541 23.9117 85.0706 25.7995 81.6912 29.1597C78.3118 32.52 76.4133 37.0775 76.4133 41.8297C76.4133 46.5819 78.3118 51.1394 81.6912 54.4997C85.0706 57.8599 89.6541 59.7477 94.4333 59.7477C99.2125 59.7477 103.796 57.8599 107.175 54.4997C110.555 51.1394 112.453 46.5819 112.453 41.8297C112.453 37.0775 110.555 32.52 107.175 29.1597C103.796 25.7995 99.2125 23.9117 94.4333 23.9117Z" fill="url(#paint0_linear_148_1019)"/>
</g>
<path fill-rule="evenodd" clip-rule="evenodd" d="M198.515 139.927C185.071 138.18 167.322 144.431 165.529 160.152C164.633 168.886 170.01 175 170.906 184.607C171.803 190.721 168.218 197.709 170.01 204.696C175.388 223.037 192.416 195.962 199.586 186.355C207.653 175.005 205.407 168.696 205.407 156.469" fill="#EC3B29"/>
<path opacity="0.5" d="M183.351 111.827C180.96 117.499 176.912 122.345 171.72 125.752C166.527 129.159 160.423 130.973 154.182 130.965C147.94 130.957 141.842 129.126 136.658 125.706C131.475 122.285 127.44 117.428 125.065 111.75C122.69 106.071 122.082 99.8276 123.317 93.8089C124.552 87.7902 127.575 82.2676 132.004 77.9405C136.432 73.6134 142.066 70.6764 148.192 69.5018C154.319 68.3272 160.662 68.9677 166.418 71.3422" stroke="white" stroke-width="2.75716" stroke-miterlimit="10" stroke-dasharray="6.89 6.89"/>
<path opacity="0.5" d="M176.457 107.005C175.163 111.637 172.489 115.755 168.799 118.797C165.109 121.84 160.581 123.66 155.832 124.01C151.083 124.36 146.342 123.223 142.254 120.753C138.167 118.284 134.93 114.602 132.986 110.208C131.041 105.814 130.482 100.921 131.384 96.1941C132.287 91.4674 134.607 87.1365 138.03 83.7899C141.453 80.4433 145.813 78.2435 150.516 77.4896C155.219 76.7357 160.038 77.4644 164.317 79.5763" stroke="white" stroke-width="2.75716" stroke-miterlimit="10" stroke-dasharray="5.51 5.51"/>
<path d="M166.807 130.276C166.807 130.957 166.646 131.624 166.343 132.19C166.04 132.757 165.609 133.199 165.105 133.46C164.601 133.72 164.047 133.789 163.512 133.656C162.977 133.523 162.486 133.194 162.101 132.712C161.715 132.23 161.452 131.616 161.346 130.948C161.24 130.279 161.294 129.586 161.503 128.957C161.712 128.327 162.065 127.789 162.518 127.41C162.972 127.031 163.505 126.829 164.05 126.829C164.412 126.829 164.771 126.918 165.105 127.091C165.44 127.265 165.744 127.519 166 127.839C166.256 128.159 166.459 128.539 166.597 128.957C166.736 129.375 166.807 129.823 166.807 130.276Z" fill="#ECECEC"/>
<path d="M141.261 118.933C141.542 117.738 140.801 116.541 139.606 116.26C138.411 115.98 137.214 116.721 136.933 117.915C136.653 119.11 137.393 120.307 138.588 120.588C139.783 120.869 140.98 120.128 141.261 118.933Z" fill="#ECECEC"/>
<defs>
<filter id="filter0_d_148_1019" x="46.8724" y="0" width="95.1224" height="118.558" filterUnits="userSpaceOnUse" color-interpolation-filters="sRGB">
<feFlood flood-opacity="0" result="BackgroundImageFix"/>
<feColorMatrix in="SourceAlpha" type="matrix" values="0 0 0 0 0 0 0 0 0 0 0 0 0 0 0 0 0 0 127 0" result="hardAlpha"/>
<feOffset dy="5.51431"/>
<feGaussianBlur stdDeviation="2.75716"/>
<feComposite in2="hardAlpha" operator="out"/>
<feColorMatrix type="matrix" values="0 0 0 0 0 0 0 0 0 0 0 0 0 0 0 0 0 0 0.25 0"/>
<feBlend mode="normal" in2="BackgroundImageFix" result="effect1_dropShadow_148_1019"/>
<feBlend mode="normal" in="SourceGraphic" in2="effect1_dropShadow_148_1019" result="shape"/>
</filter>
<linearGradient id="paint0_linear_148_1019" x1="94.4334" y1="0" x2="94.4334" y2="107.529" gradientUnits="userSpaceOnUse">
<stop stop-color="#EC3B29"/>
<stop offset="1" stop-color="#FD8D06"/>
</linearGradient>
</defs>
</svg>
