<svg width="170" height="57" viewBox="0 0 170 57" fill="none" xmlns="http://www.w3.org/2000/svg">
<path d="M0.930057 53.0042L1.85388 53.0063L1.87254 44.9175L0.948714 44.9153L0.930057 53.0042ZM5.96909 47.9401C6.88755 47.9422 7.49829 48.6204 7.51741 49.6463L4.32699 49.639C4.39918 48.6132 5.04527 47.938 5.96909 47.9401ZM7.48623 51.5208C7.24336 52.0305 6.73784 52.3032 5.99126 52.3015C5.00835 52.2992 4.37087 51.5727 4.32517 50.4285L4.32527 50.3855L8.48785 50.3951L8.48867 50.0406C8.49282 48.2413 7.5447 47.1273 5.98172 47.1237C4.39188 47.1201 3.36865 48.2993 3.36445 50.1201C3.36023 51.9517 4.36194 53.1141 5.96789 53.1179C7.23547 53.1208 8.12847 52.5159 8.41006 51.5229L7.48623 51.5208ZM11.7168 52.3201C11.0454 52.3185 10.5467 51.9736 10.5481 51.3828C10.5494 50.8027 10.9368 50.4975 11.8178 50.4404L13.3757 50.342L13.3745 50.8737C13.3725 51.7008 12.6675 52.3223 11.7168 52.3201ZM11.5431 53.1307C12.3165 53.1325 12.9511 52.7956 13.3285 52.1788L13.4144 52.179L13.4124 53.033L14.2933 53.035L14.3024 49.0711C14.3052 47.868 13.5173 47.1411 12.1048 47.1378C10.8694 47.135 9.95491 47.7452 9.82923 48.6741L10.7638 48.6763C10.8938 48.22 11.3778 47.958 12.0706 47.9595C12.9354 47.9615 13.3803 48.3547 13.3786 49.069L13.3774 49.5954L11.7068 49.6936C10.3584 49.771 9.59437 50.3655 9.59198 51.4021C9.58954 52.4602 10.4205 53.1281 11.5431 53.1307ZM18.1441 53.1459C18.9444 53.1478 19.6328 52.768 19.9995 52.1243L20.0855 52.1245L20.0833 53.0484L20.9642 53.0504L20.9828 44.9615L20.059 44.9594L20.0516 48.1713L19.971 48.1711C19.6449 47.5366 18.9636 47.1537 18.158 47.1518C16.6863 47.1484 15.7221 48.3278 15.7179 50.1433C15.7137 51.9641 16.6617 53.1425 18.1441 53.1459ZM18.3709 47.9848C19.4182 47.9872 20.0716 48.8266 20.0685 50.1533C20.0654 51.4907 19.4136 52.3163 18.3609 52.3139C17.3028 52.3115 16.6709 51.499 16.674 50.1455C16.6771 48.7973 17.3181 47.9824 18.3709 47.9848ZM28.1839 47.9913C29.1023 47.9935 29.7131 48.6716 29.7322 49.6976L26.5418 49.6902C26.614 48.6645 27.2601 47.9892 28.1839 47.9913ZM29.701 51.572C29.4581 52.0817 28.9526 52.3545 28.206 52.3527C27.2231 52.3505 26.5857 51.6239 26.54 50.4797L26.5401 50.4368L30.7026 50.4464L30.7035 50.0919C30.7076 48.2926 29.7595 47.1786 28.1965 47.175C26.6067 47.1713 25.5834 48.3506 25.5792 50.1714C25.575 52.0029 26.5767 53.1654 28.1827 53.1691C29.4503 53.172 30.3433 52.5671 30.6248 51.5741L29.701 51.572ZM32.1468 53.0762L33.0706 53.0783L33.0789 49.4904C33.0808 48.674 33.6677 48.0201 34.425 48.0219C35.1555 48.0235 35.6325 48.4651 35.6309 49.1526L35.6219 53.0842L36.5457 53.0863L36.5543 49.3642C36.556 48.6283 37.0945 48.028 37.9001 48.0299C38.7165 48.0318 39.1184 48.4516 39.1164 49.3056L39.1077 53.0922L40.0315 53.0944L40.0407 49.0929C40.0435 47.879 39.3845 47.2008 38.2028 47.198C37.4025 47.1962 36.741 47.5975 36.428 48.2091L36.3421 48.2089C36.0749 47.6067 35.528 47.1919 34.7438 47.1901C33.9704 47.1883 33.3895 47.5575 33.1248 48.2015L33.0389 48.2013L33.041 47.2882L32.1601 47.2862L32.1468 53.0762ZM44.5514 47.2127C43.7619 47.2109 43.0681 47.6121 42.696 48.2773L42.61 48.2771L42.6122 47.3103L41.7314 47.3082L41.7136 55.0318L42.6374 55.034L42.6439 52.2303L42.7298 52.2305C43.0453 52.8435 43.7105 53.2049 44.5376 53.2068C46.0093 53.2102 46.9735 52.0254 46.9776 50.2154C46.9818 48.3946 46.0285 47.2161 44.5514 47.2127ZM44.3193 52.3738C43.2773 52.3714 42.6186 51.532 42.6217 50.2053C42.6248 48.8733 43.2873 48.0423 44.3347 48.0447C45.3928 48.0471 46.0247 48.8596 46.0216 50.2132C46.0185 51.5667 45.3828 52.3762 44.3193 52.3738ZM50.206 52.4088C49.5346 52.4073 49.0359 52.0624 49.0372 51.4716C49.0386 50.8915 49.426 50.5862 50.307 50.5292L51.8648 50.4307L51.8636 50.9625C51.8617 51.7896 51.1567 52.411 50.206 52.4088ZM50.0322 53.2195C50.8057 53.2213 51.4402 52.8844 51.8176 52.2675L51.9036 52.2677L51.9016 53.1217L52.7825 53.1238L52.7916 49.1599C52.7944 47.9568 52.0065 47.2299 50.5939 47.2266C49.3586 47.2238 48.4441 47.834 48.3184 48.7629L49.253 48.765C49.3829 48.3088 49.8669 48.0467 50.5598 48.0483C51.4245 48.0503 51.8694 48.4434 51.8678 49.1578L51.8666 49.6842L50.1959 49.7824C48.8476 49.8598 48.0835 50.4542 48.0811 51.4909C48.0787 52.549 48.9097 53.2169 50.0322 53.2195ZM54.894 45.8401L54.8905 47.3386L53.956 47.3364L53.9542 48.1099L54.8887 48.112L54.8806 51.6247C54.8781 52.7311 55.3551 53.1727 56.5475 53.1754C56.7301 53.1759 56.9074 53.1548 57.0901 53.123L57.0919 52.3442C56.92 52.3599 56.8287 52.365 56.6621 52.3647C56.0606 52.3633 55.8034 52.0726 55.805 51.3905L55.8126 48.1142L57.1016 48.1171L57.1034 47.3437L55.8144 47.3407L55.8178 45.8422L54.894 45.8401ZM58.5403 53.1371L59.4641 53.1392L59.472 49.7124C59.4742 48.7349 60.0451 48.0809 61.0817 48.0833C61.9572 48.0854 62.4179 48.5967 62.4156 49.6225L62.4074 53.146L63.3313 53.1481L63.3399 49.3991C63.343 48.0402 62.5714 47.2543 61.3468 47.2514C60.4606 47.2494 59.8528 47.624 59.5613 48.2624L59.4753 48.2622L59.4827 45.0503L58.5589 45.0482L58.5403 53.1371ZM65.2922 55.2474C66.3181 55.2497 66.7809 54.8533 67.2782 53.5117L69.5536 47.3724L68.5707 47.3701L66.9752 52.1306L66.8893 52.1304L65.3104 47.3626L64.3114 47.3603L66.4411 53.1607L66.3329 53.5042C66.0896 54.2018 65.799 54.4536 65.2672 54.4524C65.1383 54.4521 64.9933 54.4464 64.8806 54.4246L64.8787 55.2142C65.0076 55.236 65.1687 55.2471 65.2922 55.2474ZM74.2836 45.8848L74.2801 47.3833L73.3456 47.3812L73.3438 48.1546L74.2783 48.1567L74.2702 51.6694C74.2677 52.7759 74.7447 53.2174 75.9371 53.2202C76.1197 53.2206 76.297 53.1995 76.4797 53.1677L76.4815 52.3889C76.3096 52.4046 76.2182 52.4098 76.0517 52.4094C75.4502 52.408 75.193 52.1174 75.1946 51.4352L75.2022 48.1589L76.4912 48.1618L76.493 47.3884L75.204 47.3854L75.2074 45.8869L74.2836 45.8848ZM80.1694 53.289C81.8183 53.2928 82.8414 52.1565 82.8457 50.2981C82.85 48.4343 81.8321 47.2987 80.1832 47.2949C78.5343 47.2911 77.5111 48.422 77.5068 50.2858C77.5026 52.1442 78.5204 53.2852 80.1694 53.289ZM80.1713 52.4565C79.0756 52.454 78.4597 51.6576 78.4629 50.288C78.4661 48.913 79.0856 48.1249 80.1813 48.1274C81.277 48.1299 81.8928 48.9209 81.8896 50.2959C81.8865 51.6655 81.267 52.459 80.1713 52.4565ZM90.2271 47.318C89.4376 47.3162 88.7438 47.7175 88.3716 48.3826L88.2857 48.3824L88.2879 47.4156L87.407 47.4136L87.3892 55.1372L88.3131 55.1393L88.3195 52.3356L88.4055 52.3358C88.7209 52.9489 89.3861 53.3103 90.2133 53.3122C91.6849 53.3156 92.6491 52.1308 92.6533 50.3207C92.6575 48.4999 91.7041 47.3214 90.2271 47.318ZM89.995 52.4791C88.953 52.4767 88.2943 51.6373 88.2973 50.3107C88.3004 48.9786 88.963 48.1476 90.0103 48.1501C91.0684 48.1525 91.7004 48.965 91.6972 50.3185C91.6941 51.672 91.0585 52.4816 89.995 52.4791ZM94.0968 53.2191L95.0206 53.2212L95.0289 49.6333C95.0308 48.8169 95.6713 48.2276 96.5522 48.2296C96.7348 48.23 97.0677 48.263 97.1429 48.2847L97.145 47.3609C97.0269 47.3445 96.8335 47.3333 96.6831 47.3329C95.9151 47.3312 95.2481 47.7271 95.075 48.2906L94.989 48.2905L94.991 47.4311L94.1102 47.429L94.0968 53.2191ZM100.504 53.3359C102.153 53.3397 103.176 52.2034 103.181 50.345C103.185 48.4812 102.167 47.3456 100.518 47.3418C98.8692 47.338 97.846 48.4689 97.8417 50.3327C97.8375 52.1911 98.8553 53.3321 100.504 53.3359ZM100.506 52.5034C99.4105 52.5009 98.7946 51.7045 98.7978 50.3349C98.801 48.9599 99.4205 48.1718 100.516 48.1743C101.612 48.1768 102.228 48.9678 102.225 50.3428C102.221 51.7124 101.602 52.5059 100.506 52.5034ZM106.767 53.3503C107.567 53.3522 108.256 52.9724 108.622 52.3287L108.708 52.3289L108.706 53.2528L109.587 53.2548L109.606 45.166L108.682 45.1638L108.674 48.3757L108.594 48.3755C108.268 47.741 107.586 47.3581 106.781 47.3562C105.309 47.3528 104.345 48.5322 104.341 50.3477C104.337 52.1685 105.285 53.3469 106.767 53.3503ZM106.994 48.1892C108.041 48.1916 108.694 49.031 108.691 50.3577C108.688 51.6951 108.036 52.5208 106.984 52.5183C105.926 52.5159 105.294 51.7034 105.297 50.3499C105.3 49.0017 105.941 48.1868 106.994 48.1892ZM116.078 47.4797L115.154 47.4776L115.146 50.9043C115.144 51.9195 114.584 52.5251 113.563 52.5228C112.639 52.5206 112.254 52.0363 112.256 50.9943L112.264 47.4709L111.341 47.4688L111.332 51.2178C111.329 52.5874 112.004 53.3624 113.304 53.3654C114.19 53.3675 114.808 53.0037 115.1 52.3598L115.186 52.36L115.184 53.2677L116.065 53.2697L116.078 47.4797ZM122.605 49.2672C122.446 48.2356 121.589 47.3904 120.182 47.3871C118.56 47.3834 117.526 48.5519 117.521 50.3566C117.517 52.1989 118.551 53.3775 120.173 53.3813C121.564 53.3845 122.431 52.6023 122.6 51.5392L121.665 51.537C121.492 52.1919 120.949 52.5505 120.17 52.5487C119.138 52.5464 118.474 51.6962 118.477 50.3588C118.481 49.0482 119.138 48.2172 120.18 48.2196C121.012 48.2216 121.521 48.69 121.67 49.2651L122.605 49.2672ZM124.471 46.0005L124.467 47.4991L123.533 47.4969L123.531 48.2703L124.466 48.2725L124.458 51.7852C124.455 52.8916 124.932 53.3332 126.124 53.3359C126.307 53.3363 126.484 53.3153 126.667 53.2835L126.669 52.5046C126.497 52.5204 126.406 52.5255 126.239 52.5251C125.638 52.5237 125.38 52.2331 125.382 51.551L125.39 48.2746L126.679 48.2776L126.68 47.5042L125.391 47.5012L125.395 46.0027L124.471 46.0005ZM133.311 53.4116C134.111 53.4134 134.799 53.0337 135.166 52.39L135.252 52.3902L135.25 53.314L136.131 53.316L136.15 45.2272L135.226 45.225L135.218 48.437L135.138 48.4368C134.812 47.8022 134.13 47.4193 133.325 47.4174C131.853 47.414 130.889 48.5935 130.885 50.4089C130.88 52.2297 131.828 53.4081 133.311 53.4116ZM133.538 48.2505C134.585 48.2529 135.238 49.0923 135.235 50.4189C135.232 51.7563 134.58 52.582 133.528 52.5795C132.469 52.5771 131.838 51.7646 131.841 50.4111C131.844 49.063 132.485 48.248 133.538 48.2505ZM140.246 48.2498C141.165 48.2519 141.775 48.9301 141.794 49.956L138.604 49.9487C138.676 48.923 139.322 48.2477 140.246 48.2498ZM141.763 51.8305C141.52 52.3402 141.015 52.6129 140.268 52.6112C139.285 52.6089 138.648 51.8824 138.602 50.7382L138.602 50.6952L142.765 50.7049L142.766 50.3504C142.77 48.551 141.822 47.437 140.259 47.4334C138.669 47.4298 137.646 48.6091 137.641 50.4298C137.637 52.2614 138.639 53.4239 140.245 53.4276C141.512 53.4305 142.405 52.8256 142.687 51.8326L141.763 51.8305ZM144.084 49.1288C144.082 49.9667 144.576 50.4351 145.66 50.7008L146.653 50.9448C147.27 51.0966 147.57 51.3658 147.57 51.7633C147.568 52.295 147.009 52.6644 146.23 52.6626C145.489 52.6608 145.028 52.3483 144.873 51.8591L143.922 51.8569C144.022 52.8186 144.907 53.4383 146.196 53.4413C147.512 53.4443 148.518 52.7323 148.52 51.6957C148.522 50.8632 147.997 50.3893 146.907 50.1236L146.016 49.9067C145.334 49.7386 145.013 49.4908 145.014 49.0933C145.015 48.5777 145.553 48.2298 146.24 48.2314C146.939 48.233 147.389 48.5402 147.511 49.0024L148.425 49.0045C148.303 48.0536 147.461 47.45 146.247 47.4472C145.017 47.4444 144.087 48.1674 144.084 49.1288ZM149.988 53.348L150.912 53.3501L150.925 47.5601L150.002 47.558L149.988 53.348ZM150.466 46.3828C150.821 46.3836 151.111 46.0942 151.112 45.7397C151.113 45.3852 150.824 45.0945 150.469 45.0937C150.115 45.0929 149.824 45.3823 149.823 45.7367C149.822 46.0912 150.112 46.3819 150.466 46.3828ZM155.018 52.4572C153.943 52.4548 153.344 51.637 153.347 50.3748C153.35 49.1126 153.953 48.2975 155.027 48.3C156.096 48.3025 156.744 49.1204 156.741 50.3826C156.738 51.6448 156.092 52.4597 155.018 52.4572ZM155.053 55.5833C156.633 55.5869 157.633 54.7621 157.636 53.4677L157.65 47.5756L156.769 47.5736L156.767 48.492L156.681 48.4918C156.35 47.868 155.636 47.4689 154.825 47.467C153.337 47.4636 152.395 48.6377 152.391 50.3726C152.387 52.1074 153.313 53.2697 154.812 53.2732C155.607 53.275 156.263 52.9167 156.629 52.2783L156.715 52.2785L156.713 53.4172C156.711 54.2712 156.092 54.78 155.055 54.7776C154.223 54.7757 153.708 54.4684 153.607 53.9955L152.629 53.9932C152.767 54.9496 153.657 55.5801 155.053 55.5833ZM159.377 53.3696L160.301 53.3718L160.309 49.945C160.311 48.9299 160.909 48.3136 161.832 48.3157C162.756 48.3178 163.196 48.813 163.193 49.855L163.185 53.3784L164.109 53.3806L164.117 49.6315C164.121 48.2565 163.397 47.4868 162.098 47.4838C161.211 47.4818 160.646 47.8564 160.355 48.4949L160.269 48.4947L160.271 47.5816L159.39 47.5796L159.377 53.3696ZM166.563 53.4399C166.95 53.4408 167.262 53.1246 167.263 52.7433C167.264 52.3566 166.953 52.0443 166.566 52.0434C166.185 52.0426 165.868 52.3534 165.867 52.7401C165.866 53.1214 166.182 53.439 166.563 53.4399Z" fill="#C81502"/>
<path d="M23.7039 38.1364C20.5876 38.1292 18.5238 37.0625 17.5125 34.9362C15.7462 37.0893 13.4742 38.1626 10.6967 38.1562C7.95299 38.1499 5.63482 37.2319 3.74216 35.4022C1.88337 33.5727 0.957421 31.1645 0.96431 28.1776C0.974337 23.8302 2.28643 20.3652 4.9006 17.7826C7.51476 15.2001 10.8203 13.9134 14.8173 13.9226C14.9189 13.9228 15.0205 13.9231 15.1222 13.9233C16.8158 13.9272 18.3733 14.2129 19.7946 14.7804C20.7105 14.2183 21.812 13.9387 23.0992 13.9417C24.4202 13.9448 25.3683 14.1129 25.9433 14.4461C25.6328 16.9012 25.3054 19.3231 24.9612 21.7118C24.617 24.0672 24.3761 25.7426 24.2383 26.7379C23.9282 28.9939 23.772 30.6197 23.7697 31.6153C23.7667 32.9428 24.3071 33.6078 25.391 33.6103C26.2378 33.6122 27.1367 33.0667 28.0877 31.9737C29.0387 30.8476 29.8727 29.0906 30.5895 26.7028C31.5698 27.5679 32.2451 28.5319 32.6152 29.5947C31.6256 32.7452 30.2995 34.9657 28.6367 36.2561C26.9741 37.5134 25.3298 38.1402 23.7039 38.1364ZM15.5705 17.8072C13.4026 17.8022 11.6733 18.6113 10.3823 20.2345C9.12539 21.8246 8.37467 24.2123 8.13021 27.3977C8.09565 27.6963 8.07807 27.9783 8.07745 28.2438C8.0737 29.87 8.46025 31.1652 9.2371 32.1294C10.0478 33.0937 11.0798 33.5773 12.3331 33.5802C14.4671 33.5851 16.0795 32.112 17.1702 29.1609L18.4144 18.4112C17.433 18.0107 16.4851 17.8093 15.5705 17.8072Z" fill="url(#paint0_linear_136_1906)"/>
<path d="M43.4237 32.3576L44.6687 21.2594C44.6708 20.3634 44.4354 19.6161 43.9625 19.0177C43.4897 18.4192 42.6944 18.1187 41.5766 18.1161C40.4927 18.1136 39.56 18.5927 38.7787 19.5533C38.0314 20.4808 37.5545 21.6578 37.3479 23.0844C36.1075 32.1748 35.4526 37.1181 35.383 37.9144L28.5238 37.8986L31.3724 14.4586C32.7958 14.0968 33.8802 13.9168 34.6254 13.9185C36.8949 13.9238 38.0785 14.7396 38.1764 16.366C39.8398 14.7768 41.8232 13.9849 44.1266 13.9902C46.4638 13.9956 48.2916 14.564 49.61 15.6954C50.9284 16.8268 51.5857 18.2554 51.5817 19.9811C51.5806 20.4457 51.477 21.3249 51.2708 22.6187C50.4801 27.6613 50.0837 30.5974 50.0818 31.4271C50.0783 32.9537 50.6016 33.7182 51.6516 33.7206C53.955 33.7259 55.7048 31.3737 56.9013 26.6639C58.0502 27.8613 58.7424 28.8087 58.9779 29.5062C57.1691 35.3429 54.0461 38.2562 49.6088 38.2459C47.5087 38.2411 45.952 37.6069 44.9388 36.3435C43.9255 35.0801 43.4205 33.7514 43.4237 32.3576Z" fill="url(#paint1_linear_136_1906)"/>
<path d="M69.7709 32.4183L71.0159 21.3202C71.018 20.4241 70.7826 19.6769 70.3098 19.0784C69.8369 18.48 69.0416 18.1795 67.9238 18.1769C66.8399 18.1744 65.9073 18.6534 65.126 19.6141C64.3787 20.5416 63.9017 21.7186 63.6952 23.1452C62.4548 32.2355 61.7998 37.1789 61.7302 37.9752L54.871 37.9594L57.7196 14.5194C59.1431 14.1576 60.2274 13.9776 60.9726 13.9793C63.2421 13.9845 64.4258 14.8003 64.5236 16.4267C66.1871 14.8376 68.1705 14.0457 70.4738 14.051C72.811 14.0564 74.6388 14.6248 75.9573 15.7562C77.2757 16.8876 77.9329 18.3161 77.9289 20.0418C77.9279 20.5065 77.8242 21.3857 77.618 22.6795C76.8273 27.7221 76.431 30.6582 76.4291 31.4879C76.4255 33.0145 76.9488 33.779 77.9989 33.7814C80.3022 33.7867 82.0521 31.4345 83.2485 26.7247C84.3974 27.9221 85.0896 28.8695 85.3251 29.567C83.5164 35.4037 80.3934 38.3169 75.9561 38.3067C73.856 38.3019 72.2993 37.6677 71.286 36.4043C70.2727 35.1408 69.7677 33.8122 69.7709 32.4183Z" fill="url(#paint2_linear_136_1906)"/>
<path d="M104.234 38.3221C101.118 38.315 99.0541 37.2482 98.0428 35.1219C96.2764 37.275 94.0045 38.3483 91.227 38.3419C88.4833 38.3356 86.1651 37.4176 84.2724 35.588C82.4136 33.7584 81.4877 31.3502 81.4946 28.3634C81.5046 24.0159 82.8167 20.5509 85.4309 17.9684C88.045 15.3858 91.3506 14.0991 95.3476 14.1084C95.4492 14.1086 95.5508 14.1088 95.6524 14.1091C97.3461 14.113 98.9035 14.3987 100.325 14.9661C101.241 14.404 102.342 14.1245 103.629 14.1275C104.95 14.1305 105.899 14.2986 106.474 14.6318C106.163 17.0869 105.836 19.5088 105.491 21.8975C105.147 24.253 104.906 25.9284 104.769 26.9237C104.458 29.1797 104.302 30.8055 104.3 31.8011C104.297 33.1285 104.837 33.7935 105.921 33.796C106.768 33.798 107.667 33.2525 108.618 32.1595C109.569 31.0333 110.403 29.2763 111.12 26.8885C112.1 27.7537 112.775 28.7176 113.145 29.7805C112.156 32.931 110.83 35.1514 109.167 36.4419C107.504 37.6991 105.86 38.3259 104.234 38.3221ZM96.1008 17.993C93.9329 17.988 92.2035 18.7971 90.9126 20.4203C89.6557 22.0103 88.9049 24.398 88.6605 27.5834C88.6259 27.882 88.6083 28.1641 88.6077 28.4296C88.604 30.0557 88.9905 31.3509 89.7674 32.3151C90.5781 33.2794 91.6101 33.763 92.8634 33.7659C94.9974 33.7708 96.6097 32.2977 97.7004 29.3466L98.9447 18.5969C97.9633 18.1964 97.0153 17.9951 96.1008 17.993Z" fill="url(#paint3_linear_136_1906)"/>
<path d="M124.489 20.6968C124.493 19.2366 123.8 18.5049 122.411 18.5017C121.056 18.4986 119.97 19.3589 119.153 21.0828C122.805 23.9121 124.627 27.0856 124.619 30.6034C124.613 33.1588 123.88 35.0986 122.421 36.4227C120.961 37.7468 119.13 38.4063 116.929 38.4012C114.727 38.3961 113.12 37.7287 112.106 36.3989C111.093 35.0359 110.589 33.3256 110.594 31.268C110.595 30.6375 110.614 30.1729 110.648 29.8743L112.461 14.6954C113.682 14.3332 114.918 14.1535 116.172 14.1564C118.238 14.1612 119.269 14.9102 119.266 16.4036L119.266 16.5032C120.624 14.9466 122.353 14.1706 124.454 14.1755C125.978 14.179 127.163 14.5302 128.008 15.2291C128.853 15.8948 129.274 16.7918 129.272 17.9201C129.269 19.0485 128.827 19.9767 127.944 20.7048C127.096 21.3998 125.977 21.7456 124.589 21.7424C124.521 21.7423 124.453 21.7421 124.385 21.742C124.454 21.3771 124.489 21.0287 124.489 20.6968ZM121.317 30.3469C121.321 28.4221 120.31 26.4949 118.282 24.5654C117.661 29.3429 117.351 31.7482 117.35 31.7814C117.347 33.1752 117.922 33.8735 119.073 33.8761C120.564 33.8796 121.311 32.7032 121.317 30.3469Z" fill="url(#paint4_linear_136_1906)"/>
<path d="M134.345 1.5043C135.126 0.709615 136.076 0.313561 137.193 0.316139C138.311 0.318717 139.259 0.719147 140.036 1.51743C140.847 2.2826 141.251 3.21277 141.249 4.30793C141.246 5.4031 140.838 6.33138 140.023 7.0928C139.242 7.8543 138.293 8.23377 137.175 8.23119C136.057 8.22861 135.11 7.84477 134.332 7.07968C133.555 6.31459 133.168 5.38446 133.17 4.2893C133.173 3.19413 133.565 2.2658 134.345 1.5043ZM132.229 16.0851C132.569 15.4885 133.213 15.042 134.162 14.7455C135.112 14.4158 136.043 14.252 136.958 14.2541C137.906 14.2563 138.736 14.3744 139.447 14.6083C138.103 24.5945 137.431 29.6374 137.43 29.7369C137.26 30.4003 137.174 30.9642 137.172 31.4289C137.171 31.8603 137.204 32.242 137.271 32.574C137.405 33.4372 138.014 33.87 139.098 33.8725C140.215 33.8751 141.233 33.1805 142.151 31.7888C143.103 30.364 143.818 28.7561 144.296 26.9651C144.533 27.0984 144.905 27.4974 145.411 28.1624C145.918 28.8273 146.221 29.3258 146.322 29.6579C145.639 32.3112 144.482 34.4491 142.852 36.0715C141.223 37.6939 139.273 38.5025 137.004 38.4973C134.734 38.4921 133.042 37.9406 131.927 36.8428C130.845 35.7452 130.307 34.3335 130.311 32.6078C130.311 32.2427 130.329 31.8611 130.364 31.4629L132.229 16.0851Z" fill="url(#paint5_linear_136_1906)"/>
<path d="M155.526 14.2472C158.642 14.2543 161.231 15.2393 163.293 17.2021C165.389 19.165 166.433 21.5569 166.427 24.3777C166.417 28.6588 165.122 32.0907 162.541 34.6733C159.995 37.2228 156.91 38.4934 153.285 38.4851C149.661 38.4767 146.784 37.4579 144.655 35.4285C142.559 33.3993 141.515 30.8913 141.522 27.9045C141.532 23.723 142.843 20.4073 145.457 17.9575C148.105 15.4746 151.461 14.2378 155.526 14.2472ZM154.501 18.277C152.909 18.2733 151.569 19.1663 150.48 20.9559C149.392 22.7455 148.794 25.0008 148.687 27.7219C148.682 29.6467 149.068 31.2406 149.844 32.5035C150.654 33.7664 151.872 34.3998 153.498 34.4036C155.124 34.4073 156.481 33.531 157.569 31.7746C158.691 30.0183 159.254 28.0118 159.259 25.7551C159.265 23.4984 158.879 21.7054 158.103 20.3761C157.327 18.9805 156.126 18.2808 154.501 18.277Z" fill="url(#paint6_linear_136_1906)"/>
<defs>
<linearGradient id="paint0_linear_136_1906" x1="-107.695" y1="29.4112" x2="184.891" y2="28.0689" gradientUnits="userSpaceOnUse">
<stop stop-color="#DF0141"/>
<stop offset="1" stop-color="#FF9900"/>
</linearGradient>
<linearGradient id="paint1_linear_136_1906" x1="-107.695" y1="29.4112" x2="184.891" y2="28.0689" gradientUnits="userSpaceOnUse">
<stop stop-color="#DF0141"/>
<stop offset="1" stop-color="#FF9900"/>
</linearGradient>
<linearGradient id="paint2_linear_136_1906" x1="-107.695" y1="29.4112" x2="184.891" y2="28.0689" gradientUnits="userSpaceOnUse">
<stop stop-color="#DF0141"/>
<stop offset="1" stop-color="#FF9900"/>
</linearGradient>
<linearGradient id="paint3_linear_136_1906" x1="-107.695" y1="29.4112" x2="184.891" y2="28.0689" gradientUnits="userSpaceOnUse">
<stop stop-color="#DF0141"/>
<stop offset="1" stop-color="#FF9900"/>
</linearGradient>
<linearGradient id="paint4_linear_136_1906" x1="-107.695" y1="29.4112" x2="184.891" y2="28.0689" gradientUnits="userSpaceOnUse">
<stop stop-color="#DF0141"/>
<stop offset="1" stop-color="#FF9900"/>
</linearGradient>
<linearGradient id="paint5_linear_136_1906" x1="-107.695" y1="29.4112" x2="184.891" y2="28.0689" gradientUnits="userSpaceOnUse">
<stop stop-color="#DF0141"/>
<stop offset="1" stop-color="#FF9900"/>
</linearGradient>
<linearGradient id="paint6_linear_136_1906" x1="-107.695" y1="29.4112" x2="184.891" y2="28.0689" gradientUnits="userSpaceOnUse">
<stop stop-color="#DF0141"/>
<stop offset="1" stop-color="#FF9900"/>
</linearGradient>
</defs>
</svg>
