<svg width="115" height="115" viewBox="0 0 115 115" fill="none" xmlns="http://www.w3.org/2000/svg">
<path fill-rule="evenodd" clip-rule="evenodd" d="M57.3125 0C52.3532 0 44.066 1.90469 36.2675 4.025C28.2894 6.18125 20.2466 8.73281 15.5172 10.2781C13.5399 10.9311 11.7868 12.1287 10.4595 13.7332C9.13216 15.3377 8.28435 17.2841 8.01348 19.3487C3.72973 51.5272 13.67 75.3753 25.7307 91.1519C30.8452 97.9007 36.9434 103.844 43.8216 108.783C46.596 110.745 49.1691 112.247 51.3541 113.275C53.3666 114.224 55.53 115 57.3125 115C59.095 115 61.2513 114.224 63.271 113.275C65.9051 111.995 68.4251 110.492 70.8035 108.783C77.6819 103.844 83.7801 97.9008 88.8944 91.1519C100.955 75.3753 110.895 51.5272 106.612 19.3487C106.341 17.2831 105.494 15.3355 104.166 13.7298C102.839 12.1241 101.086 10.9252 99.1078 10.2709C92.2424 8.01991 85.3236 5.93493 78.3575 4.01781C70.5591 1.91188 62.2719 0 57.3125 0ZM57.3125 35.9375C59.8586 35.9337 62.3239 36.8311 64.2717 38.4708C66.2196 40.1105 67.5242 42.3866 67.9547 44.8961C68.3851 47.4055 67.9135 49.9863 66.6235 52.1814C65.3334 54.3765 63.3081 56.0442 60.9063 56.8891L63.6735 71.1922C63.7742 71.7124 63.7585 72.2485 63.6278 72.762C63.497 73.2754 63.2543 73.7537 62.917 74.1624C62.5798 74.571 62.1563 74.9001 61.677 75.1259C61.1976 75.3518 60.6743 75.4689 60.1444 75.4688H54.4807C53.9514 75.4678 53.4289 75.35 52.9504 75.1237C52.472 74.8973 52.0494 74.5681 51.7129 74.1596C51.3765 73.751 51.1344 73.2732 51.004 72.7602C50.8737 72.2472 50.8582 71.7118 50.9588 71.1922L53.7188 56.8891C51.317 56.0442 49.2917 54.3765 48.0016 52.1814C46.7115 49.9863 46.24 47.4055 46.6704 44.8961C47.1008 42.3866 48.4055 40.1105 50.3533 38.4708C52.3012 36.8311 54.7664 35.9337 57.3125 35.9375V35.9375Z" fill="url(#paint0_linear_291_5998)"/>
<rect x="36" y="33" width="39" height="53" fill="url(#paint1_linear_291_5998)"/>
<g clip-path="url(#clip0_291_5998)">
<path fill-rule="evenodd" clip-rule="evenodd" d="M57.4702 23.9089C57.077 23.9068 56.8612 24.175 56.8008 24.4888L51.0143 44.015C44.4847 45.9474 37.9493 47.8713 31.4308 49.8201C31.0916 49.9219 30.9071 50.1243 30.9082 50.4837C30.9093 50.8425 31.2246 51.0571 31.5172 51.1472L50.9947 56.9179C52.9345 63.4703 54.8637 70.028 56.8194 76.5687C56.9211 76.9079 57.1236 77.0923 57.4829 77.0913C57.8418 77.0902 58.0564 76.7749 58.1465 76.4823L63.9367 56.9385L83.5017 51.1419C83.8907 51.0153 84.0884 50.8642 84.09 50.471C84.0927 50.0777 83.8245 49.862 83.5107 49.8016L63.9182 43.9954L58.1412 24.4978C58.0145 24.1088 57.8635 23.9111 57.4702 23.9095V23.9089ZM57.4994 46.5251C58.5536 46.5251 59.5647 46.9439 60.3101 47.6894C61.0556 48.4348 61.4744 49.4459 61.4744 50.5001C61.4744 51.5543 61.0556 52.5654 60.3101 53.3109C59.5647 54.0563 58.5536 54.4751 57.4994 54.4751C56.4451 54.4751 55.4341 54.0563 54.6886 53.3109C53.9432 52.5654 53.5244 51.5543 53.5244 50.5001C53.5244 49.4459 53.9432 48.4348 54.6886 47.6894C55.4341 46.9439 56.4451 46.5251 57.4994 46.5251V46.5251Z" fill="white"/>
<path fill-rule="evenodd" clip-rule="evenodd" d="M75.8361 31.4728C75.6794 31.4734 75.5267 31.5224 75.3989 31.6132L64.209 37.687C64.6441 39.2389 65.0978 40.7796 65.6135 42.2858L70.3093 43.6771L76.3402 32.5678C76.5257 32.2026 76.5585 31.9561 76.2819 31.6763C76.1441 31.5369 75.9893 31.476 75.8361 31.4728V31.4728ZM39.1066 31.4765C38.9677 31.4908 38.8358 31.5586 38.7091 31.6858C38.4558 31.9402 38.5278 32.3149 38.6709 32.5852L44.7151 43.7195C46.259 43.2865 47.7954 42.8354 49.3049 42.3219L50.694 37.6351C46.9792 35.6158 43.2645 33.5912 39.5476 31.5851C39.3912 31.5014 39.2455 31.4627 39.1066 31.4765V31.4765ZM70.3114 57.2053C68.732 57.6463 67.1685 58.1063 65.6474 58.6332C65.1953 60.1834 64.7305 61.731 64.2684 63.2786L75.4323 69.3397C75.7975 69.5252 76.0439 69.558 76.3237 69.2814C76.6031 69.0053 76.5654 68.6634 76.3868 68.3984L70.3114 57.2053ZM44.6647 57.2509C42.6348 60.9842 40.6017 64.716 38.5856 68.4514C38.4176 68.7641 38.4319 69.0376 38.6863 69.2909C38.9407 69.5443 39.3154 69.4722 39.5857 69.3291L50.72 63.285C50.2811 61.7183 49.8237 60.1596 49.3028 58.6279C47.7552 58.1774 46.2097 57.7125 44.6642 57.2509H44.6647Z" fill="white"/>
</g>
<defs>
<linearGradient id="paint0_linear_291_5998" x1="57" y1="0" x2="57" y2="115" gradientUnits="userSpaceOnUse">
<stop stop-color="#F3411A"/>
<stop offset="1" stop-color="#F89B10"/>
</linearGradient>
<linearGradient id="paint1_linear_291_5998" x1="55.5" y1="33" x2="55.5" y2="86" gradientUnits="userSpaceOnUse">
<stop stop-color="#F55C18"/>
<stop offset="1" stop-color="#F78015"/>
</linearGradient>
<clipPath id="clip0_291_5998">
<rect width="53" height="53" fill="white" transform="translate(31 24)"/>
</clipPath>
</defs>
</svg>
