<svg width="366" height="347" viewBox="0 0 366 347" fill="none" xmlns="http://www.w3.org/2000/svg">
<path opacity="0.7" fill-rule="evenodd" clip-rule="evenodd" d="M144.918 166.05C179.519 112.05 235.867 146.767 290.24 140.015C320.887 135.193 357.464 143.871 364.384 179.55C368.339 194.979 359.441 202.693 352.52 215.229C344.612 228.729 344.612 240.3 344.612 254.764C344.612 283.693 358.453 320.336 328.795 339.623C302.103 356.979 277.389 334.801 252.674 327.087C219.062 317.443 198.301 332.872 166.667 339.623C137.01 346.372 117.239 335.765 107.352 306.837C103.397 295.266 101.417 276.945 106.363 265.371C110.318 253.8 122.182 247.05 128.113 236.443C139.976 214.264 110.318 178.586 143.93 166.05" fill="#DADADA"/>
<path fill-rule="evenodd" clip-rule="evenodd" d="M147.087 156.568C180.049 104.687 233.732 138.039 285.527 131.554C314.721 126.922 349.567 135.26 356.159 169.541C359.927 184.364 351.45 191.775 344.857 203.819C337.324 216.79 337.324 227.907 337.324 241.806C337.324 269.599 350.51 304.805 322.256 323.334C296.828 340.01 273.286 318.702 249.74 311.29C217.72 302.025 197.942 316.849 167.807 323.334C139.554 329.819 120.718 319.628 111.3 291.835C107.534 280.718 105.65 263.115 110.359 251.997C114.126 240.88 125.427 234.394 131.077 224.203C142.379 202.897 114.126 168.616 146.145 156.571" fill="#EC3B29"/>
<path fill-rule="evenodd" clip-rule="evenodd" d="M135.838 138.849C168.618 86.6141 222.001 120.194 273.514 113.665C302.548 109.001 337.2 117.396 343.756 151.909C347.502 166.833 339.074 174.295 332.517 186.421C325.025 199.48 325.025 210.673 325.025 224.665C325.025 252.648 338.137 288.097 310.04 306.749C284.753 323.537 261.339 302.086 237.925 294.623C206.083 285.296 186.414 300.22 156.444 306.749C128.348 313.282 109.616 303.018 100.251 275.034C96.5037 263.842 94.6313 246.118 99.3146 234.924C103.06 223.731 114.3 217.201 119.919 206.94C131.158 185.487 103.062 150.974 134.904 138.848" fill="white"/>
<path d="M280.798 114.214C275.259 128.237 283.053 141.726 296.828 149.528C304.007 154.009 312.301 156.495 320.819 156.719C329.336 156.944 337.755 154.898 345.172 150.802C343.893 142.436 339.207 134.195 332.742 127.884C319.16 114.626 300.368 113.341 280.798 114.214Z" fill="#F9F9F9"/>
<path d="M285.401 189.999C285.401 194.39 275.218 188.88 262.655 188.88C250.092 188.88 239.908 194.39 239.908 189.999C239.908 185.607 250.092 182.047 262.655 182.047C275.218 182.047 285.401 185.607 285.401 189.999Z" fill="#DADADA"/>
<g filter="url(#filter0_d_148_1020)">
<path d="M262.655 183.426C255.068 176.991 248.036 169.937 241.632 162.337C232.021 150.923 220.608 133.925 220.608 117.727C220.604 109.454 223.068 101.367 227.688 94.4871C232.309 87.6077 238.877 82.2457 246.564 79.0799C254.25 75.914 262.707 75.0865 270.867 76.7021C279.026 78.3177 286.52 82.3038 292.4 88.1559C296.315 92.0314 299.418 96.6404 301.529 101.716C303.641 106.792 304.719 112.234 304.701 117.727C304.701 133.925 293.289 150.923 283.678 162.337C277.274 169.937 270.242 176.991 262.655 183.426ZM262.655 99.8086C257.876 99.8086 253.292 101.696 249.913 105.057C246.534 108.417 244.635 112.975 244.635 117.727C244.635 122.479 246.534 127.036 249.913 130.397C253.292 133.757 257.876 135.645 262.655 135.645C267.434 135.645 272.018 133.757 275.397 130.397C278.776 127.036 280.675 122.479 280.675 117.727C280.675 112.975 278.776 108.417 275.397 105.057C272.018 101.696 267.434 99.8086 262.655 99.8086Z" fill="url(#paint0_linear_148_1020)"/>
</g>
<path fill-rule="evenodd" clip-rule="evenodd" d="M72.245 263.401C71.4567 272.509 63.5424 285.831 54.1019 288.877C45.662 291.528 40.0107 284.277 32.4235 282.654C16.811 278.888 5.68341 284.686 4.67434 262.866C3.31041 239.564 24.5507 245.267 39.9737 245.636C54.9177 245.963 69.4423 239.976 71.5344 260.441C71.8484 262.401 72.2035 263.88 71.996 266.277" fill="#F3C7AE"/>
<path fill-rule="evenodd" clip-rule="evenodd" d="M69.867 259.727C69.0787 268.835 61.1643 282.157 51.7238 285.203C43.2837 287.854 37.6324 280.603 30.0454 278.98C14.433 275.215 3.30566 281.013 2.29642 259.192C0.932484 235.891 22.1724 241.593 37.5956 241.962C52.5396 242.289 67.0642 236.301 69.1566 256.768C69.4709 258.727 69.8256 260.207 69.6181 262.604" fill="#F9F9F9"/>
<path fill-rule="evenodd" clip-rule="evenodd" d="M204.752 167.577C205.654 172.764 204.21 174.377 198.528 174.515C192.916 174.652 187.296 174.438 181.678 174.401C177.376 174.371 172.523 175.632 171.077 169.572C170.9 168.829 169.169 168.376 168.111 167.888C158.969 163.662 153.123 154.145 153.978 144.832C154.404 139.81 156.424 135.056 159.743 131.264C163.062 127.472 167.507 124.84 172.427 123.752C176.511 122.773 180.762 122.438 185.613 121.708C184.884 119.238 184.14 116.802 183.449 114.359C181.952 109.056 179.728 103.824 179.145 98.4291C177.407 82.3332 175.384 66.3611 170.546 50.7539C167.896 42.2037 166.773 33.2964 159.319 26.7332C152.558 20.7786 146.652 13.9137 139.762 8.11519C131.51 1.17035 122.097 -2.60767 110.996 2.29988C110.201 2.5801 109.352 2.67665 108.514 2.58227C100.054 2.09229 92.8054 5.33905 86.2074 9.81464C65.0041 24.2046 52.8486 44.5466 47.1377 68.263C44.0728 80.996 43.3597 94.2616 41.7789 107.308C41.2283 111.843 42.6415 117.096 40.7035 120.859C37.7159 126.661 37.0196 132.42 36.3517 138.559C36.0719 141.152 33.4415 143.551 31.7317 145.942C30.9087 146.821 29.9874 147.603 28.9863 148.272C34.1698 152.083 34.0153 157.139 33.68 162.263C33.5317 164.542 32.736 167.13 33.5509 169.053C36.0305 174.831 37.7957 181.926 42.3758 185.586C48.6591 190.607 55.123 195.781 58.5219 202.349C63.9581 212.862 71.0977 220.517 82.2667 225.216C88.3992 227.794 96.4505 226.139 99.1583 220.78L103.186 221.91C99.6612 214.85 96.1733 207.855 92.6816 200.867L93.9568 200.144L98.1588 203.026C99.964 201.677 101.542 200.5 103.02 199.399C92.6014 198.406 85.204 193.55 83.1821 183.017C82.1609 177.693 81.863 172.238 81.061 165.321C83.6025 166.926 85.4452 167.577 86.4548 168.843C88.3 171.164 89.316 174.116 91.2669 176.322C96.6334 182.408 102.304 188.247 107.857 194.18C107.004 187.189 105.248 181.093 104.191 174.887C103.795 172.937 104.011 170.912 104.809 169.089C105.606 167.266 106.947 165.734 108.647 164.7C111.495 162.726 113.641 159.777 115.943 157.139C117.025 155.734 118.01 154.257 118.892 152.718L120.906 153.382C120.354 156.581 119.975 159.817 119.209 162.971C118.064 167.698 115.469 172.393 115.578 177.056C115.868 188.992 123.335 197.666 133.164 205.567C133.568 196.212 133.972 186.857 134.375 177.503L136.539 177.333C137.325 180.085 137.948 182.882 138.405 185.708C138.92 190.515 138.444 195.49 139.515 200.149C140.705 205.325 141.004 209.967 138.264 214.789C135.377 219.874 133.012 225.234 129.943 231.437L135.662 228.118C135.391 230.661 135.214 232.336 134.94 234.917C136.697 234.401 138.931 234.306 139.248 233.51C139.712 232.338 138.901 230.641 138.474 229.213C138.002 227.642 136.411 225.485 136.982 224.717C137.997 223.347 140.185 222.597 142.033 222.05C143.054 221.747 144.377 222.388 145.79 222.646C145.973 220.681 146.115 219.142 146.262 217.574L151.253 217.87C151.933 222.496 152.57 226.844 153.211 231.192C154.177 237.733 155.511 244.032 161.497 248.457C163.523 249.931 165.16 251.876 166.268 254.123C169.888 262.034 175.136 266.032 184.535 262.88C188.709 261.479 191.437 263.862 192.898 267.407C193.785 269.951 194.524 272.545 195.111 275.174C190.504 273.635 189.016 273.324 185.452 277.987C183.118 281.037 183.381 285.917 182.303 290.769C187.121 290.114 190.324 289.852 193.423 289.159C194.02 288.985 194.569 288.678 195.03 288.261C195.49 287.844 195.851 287.327 196.083 286.751C198.379 277.059 201.29 267.409 202.411 257.581C203.889 244.618 203.875 231.499 204.58 218.451L204.752 167.577ZM82.731 37.2626C82.1521 36.761 81.5704 36.2556 80.9927 35.7514C82.8546 34.9565 84.6454 34.004 86.3453 32.9044C92.519 28.1593 98.0572 22.3646 106.074 20.553C109.157 19.8567 113.898 19.319 115.641 20.9398C122.774 27.5532 130.939 34.0648 129.232 45.6271C128.416 46.011 127.55 46.2796 126.66 46.4253C122.204 46.6509 118.209 47.4439 116.788 52.3347C116.563 52.7868 116.18 53.1411 115.712 53.3314C108.969 56.5911 107.43 62.5508 107.37 68.9425C107.321 74.2291 107.681 79.3417 99.6934 80.2237C101.002 81.7323 101.549 82.4879 102.227 83.1094C102.882 83.709 103.674 84.1719 105.135 85.215C95.7993 87.1015 86.2975 86.1499 79.8619 94.1688C79.4081 92.0851 79.1271 90.7995 78.8473 89.5153C77.9254 91.4932 77.2135 93.7446 78.0452 95.1591C82.2113 102.238 86.349 109.331 96.1293 110.795C100.513 111.451 104.738 113.374 108.886 115.05C109.53 115.308 109.917 117.59 109.494 118.58C105.252 128.675 93.1855 133.262 83.9056 127.059C75.8621 121.686 67.4565 115.756 64.2355 106.001C57.9689 87.019 57.3409 68.9476 70.5536 51.5804C78.7169 40.8524 83.7446 38.5069 95.5286 43.8567C96.8 44.4331 98.5999 43.9354 100.156 43.9354C100.252 43.1514 100.346 42.3688 100.442 41.5848L82.731 37.2626ZM116.385 68.9992C122.832 70.6755 128.07 71.854 133.168 73.4361C136.557 74.487 138.483 76.5398 137.221 80.5189C135.029 87.4547 133.327 94.5363 131.172 101.488C130.538 103.842 129.361 106.016 127.736 107.834C126.642 108.933 124.212 108.806 122.38 109.227C122.06 107.605 120.909 105.536 121.554 104.433C124.948 98.6147 121.927 95.0843 117.625 91.461C116.538 90.5455 116.382 88.2374 116.396 86.5754C116.421 83.8263 117.158 81.0811 117.179 78.3308C117.193 75.4876 116.715 72.6406 116.381 69.0005L116.385 68.9992ZM199.526 180.189C203.502 179.867 205.016 182.088 203.951 184.978C203.509 186.077 202.837 187.07 201.981 187.89C201.126 188.71 200.105 189.338 198.988 189.733C193.34 190.873 187.613 191.584 181.858 191.861C181.114 191.722 180.415 191.404 179.822 190.935C179.228 190.466 178.758 189.859 178.451 189.167C178.42 188.481 178.572 187.798 178.892 187.19C179.211 186.582 179.688 186.07 180.271 185.706C186.681 183.647 193.219 181.95 199.522 180.19L199.526 180.189ZM83.7651 97.0739C83.399 96.2435 83.0339 95.4131 82.6703 94.5827C83.9842 93.8941 85.2943 93.1966 86.616 92.5196C91.1612 90.1767 108.258 93.127 111.502 96.9914C111.849 97.404 110.803 99.6772 110.535 99.654C101.594 98.8971 92.6787 97.9752 83.7611 97.0739H83.7651ZM98.5548 145.186C100.659 147.636 103.394 151.332 102.017 156.36C101.525 157.637 100.9 158.858 100.152 160.004C98.9313 159.251 97.3594 158.742 96.5703 157.691C95.3196 156.015 94.9507 152.697 93.5788 152.346C88.7576 151.118 89.4953 147.198 87.5535 143.965L98.5548 145.186ZM181.098 193.22C188.916 198.201 197.044 191.273 203.62 196.74C196.226 201.111 186.758 201.64 182.617 197.875C181.792 197.127 181.81 195.536 181.095 193.22H181.098ZM89.214 100.217L103.639 103.671C98.4244 104.237 93.7853 110.426 88.2215 105.129C88.5116 103.681 88.8118 102.19 89.2103 100.219L89.214 100.217Z" fill="#EC3B29"/>
<path fill-rule="evenodd" clip-rule="evenodd" d="M199.52 180.191C193.216 181.951 186.677 183.648 180.265 185.709C179.681 186.072 179.206 186.584 178.886 187.192C178.566 187.801 178.414 188.483 178.445 189.169C178.752 189.861 179.223 190.468 179.816 190.937C180.41 191.406 181.109 191.724 181.852 191.863C187.608 191.586 193.334 190.875 198.982 189.735C200.099 189.34 201.12 188.712 201.976 187.892C202.831 187.072 203.503 186.079 203.945 184.98C205.012 182.092 203.498 179.869 199.52 180.191Z" fill="#EC3B29"/>
<path fill-rule="evenodd" clip-rule="evenodd" d="M181.094 193.219C181.807 195.54 181.791 197.126 182.613 197.874C186.753 201.643 196.221 201.11 203.615 196.739C197.039 191.272 188.913 198.201 181.094 193.219Z" fill="#EC3B29"/>
<path fill-rule="evenodd" clip-rule="evenodd" d="M74.0996 55.9194C76.9982 56.791 78.8202 57.2088 80.5338 57.8845C83.5521 58.9501 86.4909 60.229 89.3278 61.7115C91.7906 63.1131 96.5589 61.6045 97.7607 58.6259C99.3686 54.6467 95.3532 49.4387 90.9421 49.5999C85.0391 49.8075 79.9484 51.8397 74.0996 55.9194Z" fill="#EC3B29"/>
<path fill-rule="evenodd" clip-rule="evenodd" d="M174.305 66.4892C174.305 66.4892 212.472 163.52 204.278 225.132C196.083 286.745 155.902 180.156 155.902 180.156L143.845 135.949" fill="#EC3B29"/>
<defs>
<filter id="filter0_d_148_1020" x="215.094" y="75.897" width="95.1224" height="118.558" filterUnits="userSpaceOnUse" color-interpolation-filters="sRGB">
<feFlood flood-opacity="0" result="BackgroundImageFix"/>
<feColorMatrix in="SourceAlpha" type="matrix" values="0 0 0 0 0 0 0 0 0 0 0 0 0 0 0 0 0 0 127 0" result="hardAlpha"/>
<feOffset dy="5.51431"/>
<feGaussianBlur stdDeviation="2.75716"/>
<feComposite in2="hardAlpha" operator="out"/>
<feColorMatrix type="matrix" values="0 0 0 0 0 0 0 0 0 0 0 0 0 0 0 0 0 0 0.25 0"/>
<feBlend mode="normal" in2="BackgroundImageFix" result="effect1_dropShadow_148_1020"/>
<feBlend mode="normal" in="SourceGraphic" in2="effect1_dropShadow_148_1020" result="shape"/>
</filter>
<linearGradient id="paint0_linear_148_1020" x1="262.655" y1="75.897" x2="262.655" y2="183.426" gradientUnits="userSpaceOnUse">
<stop stop-color="#EC3B29"/>
<stop offset="1" stop-color="#FD8D06"/>
</linearGradient>
</defs>
</svg>
