<svg width="513" height="438" viewBox="0 0 513 438" fill="none" xmlns="http://www.w3.org/2000/svg">
<path opacity="0.7" d="M215.233 264.302C217.658 237.151 229.872 235.945 254.169 237.606C267.8 238.537 279.106 238.805 292.037 234.63C308.765 228.182 322.227 218.487 340.443 215.179C358.016 212.334 376.882 214.634 389.543 225.614C395.527 231.586 400.92 237.518 408.829 242.104C421.284 249.024 434.564 247.403 448.043 249.84C467.404 253.186 486.098 269.637 486.863 286.378C487.126 296.005 482.652 305.308 487.704 314.758C492.261 323.161 501.451 326.824 506.748 333.76C522.187 353.022 493.57 365.227 475.55 366.526C431.164 369.057 386.212 358.906 342.02 359.42C319.356 359.389 298.47 359.479 276.651 363.046C262.778 364.625 248.712 368.217 234.49 367.245C219.675 366.233 209.919 349.888 207.478 338.089C205.087 325.788 218.7 319.481 222.729 308.628C227.546 295.809 213.65 280.348 215.005 266.28C215.053 265.777 215.102 265.274 215.15 264.772" fill="#E6E6E6"/>
<path d="M204.967 276.985C207.488 249.957 220.182 248.758 245.43 250.41C259.594 251.336 271.345 251.602 284.782 247.446C302.166 241.032 316.157 231.374 335.085 228.082C353.348 225.249 372.952 227.538 386.108 238.467C392.327 244.412 397.935 250.315 406.145 254.881C419.086 261.769 432.889 260.153 446.901 262.58C467.02 265.909 486.446 282.283 487.245 298.948C487.523 308.531 482.866 317.788 488.116 327.198C492.847 335.562 502.402 339.207 507.904 346.111C523.947 365.284 494.208 377.435 475.483 378.728C429.357 381.249 382.646 371.146 336.721 371.666C313.168 371.636 291.464 371.726 268.79 375.273C254.375 376.847 239.756 380.422 224.977 379.456C209.582 378.448 203.703 358.925 201.168 347.181C198.684 334.937 205.185 329.832 209.374 319.035C214.383 306.273 203.324 292.965 204.736 278.96L204.888 277.459" fill="#EC3B29"/>
<path d="M223.711 267.017C225.9 242.56 236.845 241.47 258.612 242.955C270.823 243.789 280.953 244.024 292.54 240.258C307.53 234.447 319.599 225.705 335.919 222.718C351.665 220.148 368.567 222.212 379.903 232.096C385.262 237.473 390.09 242.81 397.172 246.941C408.326 253.168 420.225 251.703 432.306 253.894C449.651 256.9 466.388 271.707 467.07 286.787C467.3 295.459 463.283 303.84 467.805 312.349C471.883 319.916 480.115 323.21 484.856 329.456C498.678 346.799 473.031 357.804 456.885 358.98C417.117 361.278 376.846 352.153 337.255 352.641C316.95 352.622 298.236 352.712 278.686 355.934C266.256 357.364 253.652 360.603 240.909 359.734C227.637 358.829 218.905 344.111 216.726 333.484C214.589 322.401 223.872 314.839 227.489 305.063C231.812 293.513 222.288 281.475 223.513 268.802C223.557 268.35 223.6 267.899 223.644 267.448" fill="white"/>
<path d="M371.561 271.159C371.561 276.806 358.291 269.72 341.922 269.72C325.552 269.72 312.282 276.806 312.282 271.159C312.282 265.513 325.552 260.936 341.922 260.936C358.291 260.936 371.561 265.513 371.561 271.159Z" fill="#DADADA"/>
<g filter="url(#filter0_d_148_1023)">
<path d="M341.922 262.314C332.097 253.982 322.99 244.847 314.696 235.006C302.249 220.227 287.469 198.216 287.469 177.242C287.463 166.53 290.654 156.058 296.638 147.15C302.622 138.242 311.129 131.299 321.083 127.199C331.037 123.1 341.991 122.028 352.557 124.12C363.124 126.212 372.829 131.374 380.445 138.951C385.515 143.97 389.533 149.938 392.268 156.51C395.003 163.083 396.399 170.129 396.376 177.242C396.376 198.216 381.596 220.227 369.149 235.006C360.855 244.847 351.748 253.982 341.922 262.314ZM341.922 154.04C335.733 154.04 329.797 156.485 325.421 160.836C321.044 165.187 318.585 171.088 318.585 177.242C318.585 183.395 321.044 189.297 325.421 193.648C329.797 197.999 335.733 200.443 341.922 200.443C348.112 200.443 354.048 197.999 358.424 193.648C362.801 189.297 365.26 183.395 365.26 177.242C365.26 171.088 362.801 165.187 358.424 160.836C354.048 156.485 348.112 154.04 341.922 154.04Z" fill="url(#paint0_linear_148_1023)"/>
</g>
<path fill-rule="evenodd" clip-rule="evenodd" d="M208.131 324.017C218.74 324.017 228.686 320.723 237.306 325.993C247.914 331.919 245.262 338.507 259.186 338.507C266.475 338.507 273.11 338.507 279.742 340.483C287.031 342.458 298.974 350.361 298.974 358.923C299.636 368.803 287.701 368.803 279.081 370.785C263.831 374.077 236.646 383.299 224.712 370.126C204.24 348.722 208.506 326.418 208.136 324.024" fill="#EC3B29"/>
<path d="M150.922 93.418C145.241 86.8554 141.838 78.629 141.223 69.9706C140.609 61.3122 142.815 52.6877 147.512 45.3883C152.21 38.0889 159.145 32.5073 167.28 29.4793C175.415 26.4514 184.312 26.1399 192.638 28.5915C200.965 31.0431 208.274 36.1259 213.47 43.079C218.666 50.032 221.47 58.4811 221.463 67.1613C221.455 75.8414 218.636 84.2856 213.428 91.2296C208.219 98.1735 200.902 103.243 192.571 105.681" stroke="#FC8709" stroke-width="1.37858" stroke-miterlimit="10" stroke-dasharray="2.76 2.76"/>
<path d="M141.807 98.4386C134.744 89.3948 130.986 78.2072 131.159 66.7333C131.331 55.2595 135.423 44.1897 142.754 35.3622C150.086 26.5347 160.217 20.4805 171.464 18.205C182.711 15.9294 194.399 17.5694 204.585 22.8526C214.772 28.1358 222.845 36.7443 227.464 47.2487C232.083 57.7532 232.97 69.5216 229.978 80.5998C226.986 91.6779 220.294 101.399 211.015 108.15C201.735 114.901 190.426 118.274 178.965 117.71" stroke="#FC8709" stroke-width="1.37858" stroke-miterlimit="10" stroke-dasharray="2.76 2.76"/>
<path d="M76.6537 259.994L74.5615 294.708L89.6067 295.615L91.6989 260.901L76.6537 259.994Z" fill="#EC3B29"/>
<path fill-rule="evenodd" clip-rule="evenodd" d="M78.4139 235.208C85.8204 233.955 85.8132 233.957 86.5558 226.422C86.5538 225.548 86.687 224.679 86.9506 223.846C92.0037 212.582 88.5156 201.353 86.8289 190.135C84.5747 175.117 81.9889 160.227 82.5138 144.841C82.9389 132.386 87.9057 121.896 93.3382 111.379C97.2359 103.837 96.6073 105.232 100.844 97.8698C101.3 97.0751 103.768 91.8074 105.016 91.5511C104.467 92.4837 109.276 86.127 108.429 87.5671C109.371 87.1865 110.442 82.0599 109.276 86.127C110.872 83.8999 111.337 85.758 112.777 83.4311C116.857 76.8367 122.837 74.3611 130.432 73.3074C136.439 72.4747 142.435 71.3431 148.24 67.7493C158.835 61.1904 170.67 62.7335 181.68 67.9606C201.161 77.2084 216.355 90.9528 225.638 110.807C227.837 115.513 230.76 119.897 233.513 124.332C243.624 140.63 246.188 158.347 241.715 176.653C239.214 186.907 234.53 196.646 230.573 206.515C229.825 208.383 227.892 209.78 226.095 211.872C225.486 210.422 224.866 209.59 224.812 208.722C224.089 196.292 223.386 183.853 222.816 171.412C222.666 168.15 223.733 165.472 226.422 163.036C231.024 158.868 231.281 155.987 228.515 150.676C227.882 149.461 226.554 148.609 225.197 147.24C223.974 149.828 223.105 151.661 222.235 153.493C221.805 153.493 221.373 153.493 220.938 153.493C222.202 146.972 221.626 140.975 216.939 135.906C213.199 139.793 211.276 143.456 213.002 149.121C214.97 155.588 215.329 162.532 216.695 169.206C217.307 172.187 218.77 174.986 219.634 177.928C219.928 178.919 219.56 180.1 219.464 181.695C214.297 179.187 213.307 174.698 212.17 170.705C210.363 164.347 210.533 157.142 207.622 151.439C201.593 139.623 197.856 126.57 185.003 118.533C174.213 111.785 163.439 108.402 151.138 108.559C149.153 108.583 147.183 109.26 145.188 109.436C143.698 109.569 142.165 109.211 140.689 109.387C139.253 109.55 137.855 109.954 136.553 110.582C134.724 111.494 133.048 112.707 130.933 112.943C128.668 116.525 126.377 120.092 124.159 123.698C123.507 124.621 123.042 125.662 122.79 126.763C122.003 132.057 121.674 137.439 120.575 142.661C119.714 146.749 121.435 149.222 124.536 150.919C133.453 155.801 136.102 163.535 135.473 173.128C135.198 177.314 135.571 181.539 135.71 185.743C135.815 188.952 137.507 190.84 140.678 191.401C141.663 191.648 142.662 191.837 143.669 191.966C148.09 192.201 150.659 194.357 151.547 198.787C151.724 199.67 153.346 201.015 154.13 200.906C160.297 200.154 166.421 199.08 172.477 197.69C174.498 197.188 176.083 194.9 178.214 193.142C178.768 194.047 180.169 195.511 180.525 197.194C180.755 198.284 179.656 200.612 178.813 200.793C176.279 201.338 173.434 200.6 170.984 201.3C168.262 202.081 165.839 203.9 163.287 205.266C163.507 205.695 163.724 206.124 163.946 206.554C165.367 206.099 166.787 205.644 168.208 205.19C168.401 205.358 168.59 205.526 168.783 205.697C166.711 207.656 164.82 209.862 162.528 211.515C159.388 213.784 158.266 215.869 161.994 218.462C156.52 224.019 158.465 234.414 163.218 237.64C166.51 239.873 172.031 239.761 176.371 239.216C179.988 238.765 181.062 239.023 181.867 242.712C183.233 248.959 185.569 254.993 187.212 261.191C188.162 264.774 188.473 268.223 183.688 269.969C180.695 271.064 177.384 279.06 177.783 282.234C178.599 288.692 179.319 295.161 179.143 301.16C178.58 302.041 177.516 302.938 177.55 303.794C177.663 306.528 178.183 309.244 178.546 311.967L178.73 311.636C177.359 309.606 174.865 307.583 174.847 305.54C174.809 301.031 172.745 297.827 170.259 294.572C166.85 290.11 163.482 285.62 160.176 281.241C160.255 285.04 160.333 288.825 160.425 293.32C157.774 289.759 159.894 284.179 153.974 283.199C154.055 287.042 155.527 291.301 150.045 292.525C151.539 294.44 152.806 296.058 154.072 297.678C153.879 297.913 153.691 298.149 153.502 298.386C152.488 297.851 151.473 297.315 150.432 296.765C149.892 298.509 149.448 300.282 149.101 302.075C148.741 304.62 148.529 306.846 151.149 308.978C155.213 312.287 158.627 316.397 162.587 320.447C157.831 321.704 157.831 321.704 153.662 328.115C155.032 324.499 156.573 320.858 153.34 317.492C152.841 316.97 151.987 316.351 151.408 316.45C151.038 316.565 150.702 316.768 150.429 317.042C150.156 317.316 149.954 317.653 149.841 318.022C149.123 323.007 148.681 328.033 147.919 333.009C147.418 336.294 147.661 339.875 144.098 342.09C143.009 342.767 142.753 344.777 141.645 347.216C138.364 348.31 138.688 353.012 137.338 356.683C135.825 360.805 134.513 364.996 132.92 369.729C118.503 360.012 105.501 361.674 93.2152 371.293C91.0937 368.788 89.1577 366.504 87.2256 364.218C86.7962 364.413 86.3669 364.608 85.9375 364.804C86.0992 367.846 86.2595 370.889 86.4869 375.126C85.3038 374.229 84.1452 373.74 83.5985 372.869C80.1921 367.459 77.0291 361.895 73.4991 356.571C72.9266 355.705 70.5907 355.09 69.6523 355.553L78.4139 235.208ZM80.2926 292.068C81.2052 291.845 82.5035 293.309 83.6557 293.935C84.386 294.333 85.4107 295.095 85.8828 294.857C86.6845 294.338 87.2563 293.531 87.48 292.603C87.6579 291.602 87.6164 290.574 87.3583 289.591C86.2634 284.288 85.1131 278.999 83.9448 273.712C83.8276 273.164 83.6054 272.394 83.1939 272.187C78.8595 269.983 79.5995 265.797 79.1364 262.081C79.1003 261.791 79.1641 261.414 79.0076 261.23L80.2926 292.068ZM132.358 215.405C132.873 211.581 133.476 208.215 133.72 204.824C133.823 203.397 133.329 200.735 132.844 200.672C130.93 200.432 128.986 200.705 127.212 201.463C126.439 201.81 125.707 204.098 126.121 204.901C128.034 208.633 130.363 212.147 132.35 215.411L132.358 215.405ZM140.051 340.612C145.905 336.895 146.756 332.122 146.188 325.557C143.928 331.079 142.131 335.491 140.043 340.616L140.051 340.612Z" fill="#EC3B29"/>
<path fill-rule="evenodd" clip-rule="evenodd" d="M135.704 153.558C135.535 149.35 137.379 146.932 140.816 145.18C144.922 143.083 148.721 140.38 152.816 138.254C153.903 137.691 155.585 138.283 157.002 138.344C156.414 139.468 155.731 140.539 154.961 141.547C153.138 143.575 151.164 145.47 148.714 147.966C158.078 149.119 166.176 150.113 174.274 151.11C174.409 151.443 174.548 151.775 174.684 152.109C170.172 154.658 165.657 157.208 161.141 159.759C161.299 160.145 161.457 160.532 161.613 160.913L165.647 162.142C165.793 166.521 164.463 168.14 160.423 167.97C154.727 167.732 149.068 167.098 144.962 162.448C143.692 161.105 142.692 159.531 142.014 157.811C140.449 153.251 140.578 153.209 135.704 153.558Z" fill="#EC3B29"/>
<path fill-rule="evenodd" clip-rule="evenodd" d="M156.964 175.472C164.553 175.675 165.336 182.246 169.14 186.283C163.64 187.743 157.834 182.406 156.964 175.472Z" fill="#EC3B29"/>
<path fill-rule="evenodd" clip-rule="evenodd" d="M107.476 194.505C104.346 211.158 101.705 237.567 97.9535 253.248C94.258 267.996 96.974 285.003 94.1538 300.739C91.8391 308.086 85.74 316.139 85.2331 324.531C84.5601 335.718 91.4005 346.424 91.6575 357.667C92.1972 364.25 87.7372 376.145 92.9938 382.076C103.398 395.803 119.662 374.326 133.422 378.898C142.631 381.325 139.105 393.275 149.979 383.639C157.771 378.495 156.697 365.33 156.27 356.883C153.722 337.08 150.295 316.288 144.947 296.316C139.008 270.694 136.627 248.093 135.404 221.819C135.202 209.643 143.358 182.999 123.779 181.818" fill="#EC3B29"/>
<path fill-rule="evenodd" clip-rule="evenodd" d="M179.844 284.075C181.147 293.51 184.965 300.291 179.741 309.333C174.629 316.509 165.419 314.083 159.543 318.408C153.668 322.733 144.975 342.793 134.347 332.796C129.035 327.798 135.719 294.514 136.227 286.125C137.124 271.207 138.102 239.452 161.355 241.79C179.946 243.846 174.586 270.658 180.382 283.172" fill="#EC3B29"/>
<path d="M205.829 90.9936C204.033 96.2099 190.104 96.1444 174.718 90.8466C159.332 85.5489 148.313 77.0248 150.109 71.8079C151.906 66.591 165.834 66.6583 181.22 71.9561C196.606 77.2538 207.625 85.7773 205.829 90.9936Z" fill="#FC8709"/>
<path d="M158.388 74.6188L198.054 87.3857L206.333 66.8566L191.428 70.4928L186.427 58.3296L175.115 65.0137L165.761 51.3906L158.388 74.6188Z" fill="#FC6F09"/>
<path d="M165.164 48.8305C166.687 48.7236 167.835 47.4022 167.728 45.879C167.621 44.3557 166.3 43.2075 164.777 43.3144C163.253 43.4212 162.105 44.7426 162.212 46.2659C162.319 47.7891 163.64 48.9373 165.164 48.8305Z" fill="#EC3B29"/>
<path d="M187.796 55.5564C189.32 55.4495 190.468 54.1281 190.361 52.6049C190.254 51.0816 188.933 49.9334 187.409 50.0403C185.886 50.1471 184.738 51.4685 184.845 52.9918C184.952 54.515 186.273 55.6632 187.796 55.5564Z" fill="#EC3B29"/>
<path d="M209.559 65.6723C211.082 65.5654 212.23 64.244 212.124 62.7208C212.017 61.1975 210.695 60.0493 209.172 60.1562C207.649 60.263 206.501 61.5844 206.608 63.1077C206.714 64.6309 208.036 65.7791 209.559 65.6723Z" fill="#EC3B29"/>
<path fill-rule="evenodd" clip-rule="evenodd" d="M406.547 408.305C406.074 411.673 402.87 416.465 399.303 417.41C396.113 418.228 394.159 415.423 391.373 414.67C385.647 412.963 381.399 414.896 381.455 406.77C381.409 398.087 389.187 400.626 394.909 401.067C400.455 401.484 405.971 399.545 406.342 407.191C406.463 407.911 406.482 408.644 406.397 409.368" fill="#ECECEC"/>
<path fill-rule="evenodd" clip-rule="evenodd" d="M406.547 404.256C406.074 407.624 402.87 412.416 399.303 413.361C396.113 414.178 394.159 411.373 391.373 410.62C385.647 408.913 381.399 410.847 381.455 402.721C381.409 394.038 389.187 396.576 394.909 397.018C400.455 397.435 405.971 395.496 406.342 403.142C406.463 403.861 406.482 404.594 406.397 405.319" fill="#F3C7AE"/>
<path fill-rule="evenodd" clip-rule="evenodd" d="M364.787 399.272C368.304 403.178 370.794 411.732 368.369 416.894C366.171 421.482 360.904 421.007 357.244 423.558C349.532 428.637 347.604 435.591 338.038 427.448C327.711 418.877 338.446 412.191 344.654 405.855C350.66 399.707 353.845 391.254 363.264 398.409C364.237 398.979 365.124 399.685 365.897 400.505" fill="#ECECEC"/>
<path fill-rule="evenodd" clip-rule="evenodd" d="M363.164 394.407C366.681 398.312 369.171 406.867 366.746 412.029C364.548 416.616 359.281 416.142 355.62 418.692C347.909 423.772 345.981 430.726 336.415 422.583C326.088 414.011 336.823 407.325 343.031 400.989C349.037 394.841 352.222 386.389 361.641 393.543C362.614 394.114 363.5 394.819 364.274 395.64" fill="#F3C7AE"/>
<path fill-rule="evenodd" clip-rule="evenodd" d="M48.1245 141.095C45.9317 142.63 41.4539 143.358 38.9952 141.811C36.8136 140.415 37.3788 137.784 36.3168 135.776C34.227 131.563 30.8337 130.156 35.5428 125.827C40.5166 121.141 43.2296 126.98 46.0463 130.511C48.7822 133.927 52.8569 136.062 48.6562 140.379C48.3071 140.836 47.8948 141.24 47.4318 141.58" fill="#EEEEEE"/>
<path fill-rule="evenodd" clip-rule="evenodd" d="M49.691 138.476C47.4981 140.011 43.0203 140.739 40.5616 139.193C38.38 137.796 38.9452 135.165 37.8832 133.157C35.7934 128.945 32.4002 127.537 37.1092 123.209C42.083 118.522 44.796 124.362 47.6127 127.893C50.3486 131.309 54.4233 133.444 50.2226 137.761C49.8735 138.217 49.4612 138.621 48.9982 138.961" fill="#F3C7AE"/>
<path fill-rule="evenodd" clip-rule="evenodd" d="M32.0319 107.88C31.6715 112 28.0854 118.023 23.8137 119.397C19.9947 120.593 17.441 117.31 14.0094 116.573C6.94838 114.863 1.91245 117.481 1.46529 107.61C0.858115 97.0678 10.4637 99.6565 17.4408 99.8299C24.2019 99.9843 30.7742 97.2819 31.7119 106.541C31.9056 107.407 31.975 108.296 31.9181 109.181" fill="#EEEEEE"/>
<path fill-rule="evenodd" clip-rule="evenodd" d="M33.6041 103.69C33.2437 107.809 29.6577 113.833 25.3859 115.207C21.5669 116.402 19.0133 113.12 15.5817 112.382C8.52064 110.673 3.48472 113.291 3.03755 103.42C2.43038 92.8774 12.036 95.4661 19.0131 95.6394C25.7742 95.7939 32.3465 93.0915 33.2842 102.351C33.4778 103.217 33.5472 104.105 33.4903 104.991" fill="#F3C7AE"/>
<path fill-rule="evenodd" clip-rule="evenodd" d="M54.3831 113.313C52.0773 114.062 48.0055 113.507 46.2855 111.516C44.768 109.728 45.9496 107.6 45.5644 105.58C44.8689 101.376 42.3025 99.2578 47.5267 96.7538C53.0769 94.0139 53.8799 99.7885 55.3844 103.593C56.8499 107.278 59.8131 110.207 55.0323 112.834C54.6094 113.137 54.1457 113.378 53.655 113.55" fill="#EEEEEE"/>
<path fill-rule="evenodd" clip-rule="evenodd" d="M56.4788 111.741C54.173 112.49 50.1012 111.935 48.3812 109.944C46.8637 108.157 48.0453 106.028 47.6601 104.008C46.9646 99.8041 44.3982 97.686 49.6224 95.182C55.1726 92.4421 55.9756 98.2167 57.4801 102.021C58.9456 105.706 61.9088 108.635 57.128 111.262C56.7052 111.565 56.2414 111.806 55.7507 111.978" fill="#F3C7AE"/>
<defs>
<filter id="filter0_d_148_1023" x="281.954" y="123.078" width="119.936" height="150.265" filterUnits="userSpaceOnUse" color-interpolation-filters="sRGB">
<feFlood flood-opacity="0" result="BackgroundImageFix"/>
<feColorMatrix in="SourceAlpha" type="matrix" values="0 0 0 0 0 0 0 0 0 0 0 0 0 0 0 0 0 0 127 0" result="hardAlpha"/>
<feOffset dy="5.51431"/>
<feGaussianBlur stdDeviation="2.75716"/>
<feComposite in2="hardAlpha" operator="out"/>
<feColorMatrix type="matrix" values="0 0 0 0 0 0 0 0 0 0 0 0 0 0 0 0 0 0 0.25 0"/>
<feBlend mode="normal" in2="BackgroundImageFix" result="effect1_dropShadow_148_1023"/>
<feBlend mode="normal" in="SourceGraphic" in2="effect1_dropShadow_148_1023" result="shape"/>
</filter>
<linearGradient id="paint0_linear_148_1023" x1="341.923" y1="123.078" x2="341.923" y2="262.314" gradientUnits="userSpaceOnUse">
<stop stop-color="#EC3B29"/>
<stop offset="1" stop-color="#FD8D06"/>
</linearGradient>
</defs>
</svg>
