<svg width="253" height="366" viewBox="0 0 253 366" fill="none" xmlns="http://www.w3.org/2000/svg">
<path d="M252.393 105.187C252.394 115.411 249.363 125.407 243.682 133.909C238.002 142.41 229.929 149.037 220.482 152.95C211.036 156.864 200.641 157.888 190.613 155.893C180.585 153.899 171.373 148.976 164.143 141.746C156.912 134.516 151.989 125.305 149.994 115.276C147.999 105.248 149.022 94.8533 152.935 85.4068C156.848 75.9603 163.474 67.8862 171.975 62.2056C180.477 56.5249 190.472 53.4929 200.697 53.4929C214.407 53.4934 227.555 58.9398 237.25 68.634C246.945 78.3283 252.392 91.4765 252.393 105.187Z" fill="#EC3B29"/>
<path d="M246.878 97.605C246.879 106.875 244.13 115.938 238.98 123.646C233.83 131.355 226.51 137.363 217.945 140.911C209.381 144.459 199.956 145.387 190.864 143.579C181.771 141.771 173.42 137.307 166.864 130.752C160.309 124.197 155.844 115.845 154.036 106.753C152.227 97.6607 153.155 88.2362 156.702 79.6713C160.25 71.1065 166.258 63.786 173.966 58.6356C181.674 53.4851 190.736 50.7361 200.006 50.7361C212.437 50.7366 224.358 55.6746 233.148 64.464C241.938 73.2535 246.877 85.1745 246.878 97.605Z" fill="white"/>
<path d="M217.928 89.7441C217.928 92.2535 210.521 89.1046 201.385 89.1046C192.248 89.1046 184.842 92.2535 184.842 89.7441C184.842 87.2347 192.248 85.2004 201.385 85.2004C210.521 85.2004 217.928 87.2347 217.928 89.7441Z" fill="#DADADA"/>
<g filter="url(#filter0_d_148_1022)">
<path d="M201.386 86.579C195.914 81.8766 190.841 76.7215 186.222 71.1674C179.29 62.8266 171.058 50.4048 171.058 38.5679C171.055 32.5226 172.832 26.6124 176.165 21.5851C179.497 16.5578 184.235 12.6395 189.779 10.326C195.323 8.01242 201.424 7.40772 207.31 8.58836C213.195 9.76901 218.6 12.6819 222.842 16.9585C225.665 19.7905 227.904 23.1586 229.427 26.8679C230.95 30.5771 231.728 34.5538 231.715 38.5679C231.715 50.4048 223.483 62.8266 216.551 71.1674C211.931 76.7215 206.859 81.8766 201.386 86.579ZM201.386 25.4739C197.939 25.4739 194.633 26.8534 192.195 29.309C189.758 31.7646 188.388 35.0951 188.388 38.5679C188.388 42.0406 189.758 45.3711 192.195 47.8267C194.633 50.2823 197.939 51.6618 201.386 51.6618C204.834 51.6618 208.14 50.2823 210.577 47.8267C213.015 45.3711 214.384 42.0406 214.384 38.5679C214.384 35.0951 213.015 31.7646 210.577 29.309C208.14 26.8534 204.834 25.4739 201.386 25.4739Z" fill="url(#paint0_linear_148_1022)"/>
</g>
<path d="M45.4427 352.285C114.649 210.271 48.3536 70.3084 48.3536 70.3084" stroke="#E4004A" stroke-width="6.89601" stroke-miterlimit="10" stroke-dasharray="11.03 11.03"/>
<path fill-rule="evenodd" clip-rule="evenodd" d="M45.1606 61.1935C44.0709 61.381 42.9505 61.1554 42.0185 60.5606C41.0864 59.9657 40.4099 59.0445 40.1211 57.9772C38.7312 54.5879 37.0752 51.3148 35.5918 47.9622C35.4691 47.6276 35.2521 47.3356 34.9669 47.1218C34.6817 46.9079 34.3406 46.7814 33.9849 46.7574C27.3183 45.6964 20.6567 44.6056 14.0003 43.4849C13.4581 43.4145 12.9616 43.144 12.6084 42.7266C11.6774 41.2547 10.8861 39.7022 9.9549 38.0343C16.6489 37.2844 23.2091 36.5471 29.9015 35.7998C29.7063 35.3028 29.5817 34.9371 29.422 34.5876C27.4394 30.2581 25.431 25.9392 23.4864 21.5901C23.3604 21.234 23.1294 20.9243 22.8239 20.7021C22.5184 20.4798 22.1528 20.3553 21.7752 20.345C19.8394 20.1219 17.9178 19.7457 15.9827 19.5077C15.6229 19.5044 15.2737 19.3858 14.9862 19.1694C14.6987 18.953 14.4882 18.6501 14.3854 18.3052C14.0891 17.4734 13.6601 16.6859 13.2031 15.6852C15.5952 15.3854 17.8253 15.059 20.0673 14.8332C22.9251 14.6214 25.6049 13.3649 27.5954 11.3035C29.1133 9.7308 30.7697 8.28728 32.5203 6.63616C33.1513 8.00989 33.7537 9.22875 34.2511 10.4897C34.3497 10.7344 34.0924 11.1685 33.9167 11.4652C32.9466 13.1096 31.9294 14.7291 30.9813 16.386C30.7843 16.7276 30.617 17.2797 30.7583 17.5903C32.8719 22.3043 35.0379 26.9933 37.2977 31.9217C41.774 27.4687 46.1233 23.1336 50.5736 18.7043C51.3565 20.7842 52.1293 22.7321 52.7949 24.7184C52.9017 25.0385 52.5825 25.5515 52.3671 25.9187C49.2278 31.293 46.0923 36.6682 42.9049 42.0104C42.7027 42.3044 42.588 42.6497 42.5742 43.0063C42.5604 43.3628 42.6481 43.716 42.827 44.0247C44.4532 47.4893 45.9345 51.0231 47.6612 54.4355C48.8004 56.686 48.7495 58.5925 46.9266 60.3803C46.3418 60.649 45.7512 60.9212 45.1606 61.1935Z" fill="#EC3B29"/>
<path fill-rule="evenodd" clip-rule="evenodd" d="M34.4488 365.662L38.0834 335.413L62.1781 350.129" fill="#E4004A"/>
<path fill-rule="evenodd" clip-rule="evenodd" d="M171.158 141.367C179.018 136.738 185.856 126.083 180.31 116.996C177.176 111.988 171.794 110.965 167.347 106.235C164.343 103.36 163.358 98.1686 159.519 95.1998C149.082 87.6858 151.234 109.098 151.398 117.163C151.807 126.522 155.607 128.944 160.662 135.435" fill="#EC3B29"/>
<defs>
<filter id="filter0_d_148_1022" x="165.543" y="8" width="71.6859" height="89.6076" filterUnits="userSpaceOnUse" color-interpolation-filters="sRGB">
<feFlood flood-opacity="0" result="BackgroundImageFix"/>
<feColorMatrix in="SourceAlpha" type="matrix" values="0 0 0 0 0 0 0 0 0 0 0 0 0 0 0 0 0 0 127 0" result="hardAlpha"/>
<feOffset dy="5.51431"/>
<feGaussianBlur stdDeviation="2.75716"/>
<feComposite in2="hardAlpha" operator="out"/>
<feColorMatrix type="matrix" values="0 0 0 0 0 0 0 0 0 0 0 0 0 0 0 0 0 0 0.25 0"/>
<feBlend mode="normal" in2="BackgroundImageFix" result="effect1_dropShadow_148_1022"/>
<feBlend mode="normal" in="SourceGraphic" in2="effect1_dropShadow_148_1022" result="shape"/>
</filter>
<linearGradient id="paint0_linear_148_1022" x1="201.386" y1="8" x2="201.386" y2="86.579" gradientUnits="userSpaceOnUse">
<stop stop-color="#EC3B29"/>
<stop offset="1" stop-color="#FD8D06"/>
</linearGradient>
</defs>
</svg>
