<svg width="41" height="41" viewBox="0 0 41 41" fill="none" xmlns="http://www.w3.org/2000/svg">
<circle cx="20.5" cy="20.5" r="20.5" transform="rotate(-180 20.5 20.5)" fill="#F56517"/>
<path d="M23.6003 27.6054C23.727 27.4811 23.8275 27.3335 23.8961 27.1709C23.9647 27.0084 24 26.8342 24 26.6583C24 26.4823 23.9647 26.3081 23.8961 26.1456C23.8275 25.9831 23.727 25.8355 23.6003 25.7112L18.2972 20.4988L23.6003 15.2865C23.8559 15.0353 23.9994 14.6946 23.9994 14.3394C23.9994 13.9842 23.8559 13.6435 23.6003 13.3923C23.3447 13.1411 22.9981 13 22.6367 13C22.2753 13 21.9287 13.1411 21.6732 13.3923L15.3997 19.5585C15.273 19.6827 15.1725 19.8304 15.1039 19.9929C15.0353 20.1554 15 20.3296 15 20.5055C15 20.6815 15.0353 20.8557 15.1039 21.0182C15.1725 21.1807 15.273 21.3284 15.3997 21.4526L21.6732 27.6188C22.1925 28.1293 23.0673 28.1293 23.6003 27.6054Z" fill="white"/>
</svg>
