<svg width="126" height="49" viewBox="0 0 126 49" fill="none" xmlns="http://www.w3.org/2000/svg">
<path d="M4.95825 39.0981C3.00601 38.8319 1.81913 37.8003 1.39763 36.0034L1.4309 35.6373C1.51964 35.3711 1.61947 35.0716 1.73039 34.7389C1.84132 34.3617 1.96333 33.9957 2.09644 33.6407C2.22955 33.2636 2.45139 32.9308 2.76198 32.6424C2.82853 32.4428 2.95055 32.1433 3.12802 31.744C3.32768 31.3225 3.64936 30.7013 4.09305 29.8805C4.448 29.2371 4.72531 28.7269 4.92497 28.3497C5.14682 27.9726 5.32429 27.6842 5.4574 27.4845C5.23555 27.0852 4.92497 26.697 4.52565 26.3198C4.1707 25.6543 3.86011 25.022 3.5939 24.4231C3.34987 23.8019 3.1613 23.2473 3.02819 22.7592C3.00601 22.2268 2.91727 21.6833 2.76198 21.1286C2.69542 20.8402 2.62887 20.5519 2.56232 20.2635C2.49576 19.9751 2.46249 19.6756 2.46249 19.365C2.37375 19.2097 2.2961 19.01 2.22955 18.766L2.2961 18.3667C2.40702 18.1892 2.42921 17.9563 2.36265 17.6679C2.31829 17.3573 2.25173 17.0467 2.16299 16.7361C2.09644 16.4477 2.02989 16.1482 1.96333 15.8376C1.91896 15.5049 1.90787 15.1832 1.93006 14.8726C1.95224 14.562 2.02989 14.2625 2.16299 13.9741C2.31829 13.6857 2.57341 13.4417 2.92836 13.242L3.26113 13.0091L3.5939 13.2088C3.83793 13.3641 4.07087 13.4972 4.29271 13.6081C4.51456 13.719 4.7364 13.8299 4.95825 13.9409C5.22446 14.074 5.49068 14.2182 5.75689 14.3735C6.02311 14.5066 6.3115 14.6619 6.62209 14.8393L6.95486 15.0723L6.92158 15.4383C6.92158 15.4827 6.93267 15.5381 6.95486 15.6047C6.97704 15.6712 7.01032 15.7267 7.05469 15.7711L7.42073 15.8709L7.45401 16.3368V16.7361C7.45401 16.9358 7.4651 17.08 7.48729 17.1687C7.50947 17.2353 7.55384 17.3129 7.62039 17.4016L7.78678 17.8342C7.78678 18.2336 7.82005 18.5885 7.88661 18.8991C7.95316 19.2097 8.03081 19.5203 8.11955 19.8309C8.23047 20.1414 8.31921 20.4631 8.38576 20.7959C8.45231 21.1065 8.46341 21.4503 8.41904 21.8275C8.55214 21.7609 8.68525 21.6611 8.81836 21.528C8.86273 21.4836 8.9071 21.4392 8.95147 21.3949C9.01802 21.3505 9.08457 21.3061 9.15113 21.2618L11.4805 18.1005L11.414 17.7011L12.2459 16.9025C12.4677 16.725 12.6785 16.5475 12.8781 16.3701C13.0778 16.1704 13.2442 15.9486 13.3773 15.7045L13.5769 15.405C14.5752 14.074 15.862 13.2531 17.4371 12.9425L18.0028 12.8094L18.1691 13.3419C18.2801 13.6525 18.4908 13.9298 18.8014 14.1738C19.1342 14.3956 19.4891 14.6175 19.8663 14.8393L20.2323 15.0723C20.3654 15.3385 20.432 15.5381 20.432 15.6712C20.432 15.8044 20.4209 15.9153 20.3987 16.004L20.5651 16.4366C20.321 17.08 20.0548 17.5458 19.7664 17.8342C19.478 18.1005 19.1785 18.3556 18.868 18.5996C18.6239 18.7993 18.4021 18.9989 18.2024 19.1986C18.0028 19.3983 17.8475 19.6201 17.7365 19.8641L17.4703 20.1969C16.9157 20.4853 16.5608 20.9068 16.4055 21.4614L16.2724 21.9273H15.7732C15.751 21.9273 15.6956 21.9828 15.6068 22.0937C15.5181 22.1824 15.385 22.4154 15.2075 22.7925C15.0078 23.0587 14.8636 23.2362 14.7749 23.3249C14.7084 23.3915 14.6529 23.4469 14.6085 23.4913C14.5642 23.6022 14.5198 23.7021 14.4754 23.7908C14.4532 23.8795 14.42 23.9905 14.3756 24.1236L14.1759 24.3898C13.9763 24.5673 13.8321 24.7447 13.7433 24.9222C13.6546 25.0775 13.5548 25.2661 13.4438 25.4879C13.3551 25.6876 13.2553 25.8983 13.1443 26.1202C13.0334 26.3198 12.8781 26.5195 12.6785 26.7192L12.745 27.0852L12.4788 27.3181C12.3013 27.4734 12.146 27.6731 12.0129 27.9171C11.8798 28.139 11.7467 28.3719 11.6136 28.6159C11.4805 28.8821 11.3363 29.1484 11.181 29.4146C11.0257 29.6808 10.8261 29.9248 10.582 30.1467C10.4267 30.546 10.2825 30.8566 10.1494 31.0784C10.0385 31.3003 9.83885 31.5665 9.55045 31.8771C9.28423 32.9419 8.65197 34.0844 7.65367 35.3046C7.63149 35.5486 7.55384 35.7926 7.42073 36.0367C7.30981 36.2585 7.18779 36.4693 7.05469 36.6689C7.01032 36.7577 6.95486 36.8575 6.8883 36.9684C6.84393 37.0572 6.81066 37.1237 6.78847 37.1681L6.68864 37.5341C6.55553 37.7782 6.41134 37.9778 6.25604 38.1331C6.12294 38.2884 5.98983 38.4326 5.85672 38.5657C5.79017 38.6101 5.72361 38.6655 5.65706 38.7321C5.61269 38.7986 5.56832 38.8541 5.52395 38.8985L4.95825 39.0981ZM36.4381 19.0655C36.4825 19.5535 36.5601 19.9751 36.6711 20.33C36.782 20.685 36.904 21.0288 37.0371 21.3616C37.148 21.6722 37.2479 21.9828 37.3366 22.2933C37.4475 22.5817 37.5252 22.9367 37.5695 23.3582C37.3921 23.935 37.259 24.4674 37.1702 24.9555C37.1037 25.4435 37.026 25.9538 36.9373 26.4862C36.5823 27.2627 36.2385 27.9504 35.9057 28.5494C35.5729 29.1484 35.3067 29.6697 35.1071 30.1134C34.9961 30.2243 34.8963 30.3574 34.8076 30.5127C34.741 30.6458 34.6634 30.79 34.5746 30.9453C34.5303 31.0119 34.4748 31.1117 34.4082 31.2448C34.3417 31.3779 34.2862 31.4666 34.2419 31.511L33.5763 31.2781L33.4432 32.11L32.9773 32.2431L32.6446 32.6424C32.2231 33.3745 31.7794 33.9957 31.3135 34.5059C30.8476 34.994 30.3152 35.4377 29.7162 35.837C29.1394 36.2141 28.4739 36.5691 27.7196 36.9019C26.9875 37.2346 26.1556 37.6007 25.2238 38C24.8467 37.9556 24.5139 37.9334 24.2255 37.9334C23.9593 37.9113 23.7042 37.8891 23.4602 37.8669C23.0387 37.8669 22.5173 37.8336 21.8962 37.7671C21.8296 37.5896 21.7298 37.4676 21.5967 37.401C21.4636 37.3345 21.3415 37.3012 21.2306 37.3012C20.8535 37.1237 20.5651 36.8686 20.3654 36.5358C20.1879 36.1809 20.0105 35.8037 19.833 35.4044C19.7221 35.1604 19.6111 34.9385 19.5002 34.7389C19.3893 34.517 19.2673 34.2952 19.1342 34.0733L19.6999 33.907L18.9678 33.1083C18.9234 33.0418 18.868 32.9863 18.8014 32.9419C18.7349 32.8754 18.6794 32.8088 18.635 32.7423L18.6017 32.2098C18.5352 30.6791 18.5019 29.2815 18.5019 28.017C18.5241 26.7302 18.7016 25.5877 19.0343 24.5894V24.2234C19.1009 23.7353 19.1675 23.336 19.234 23.0254C19.3006 22.6927 19.356 22.3821 19.4004 22.0937C19.4669 21.6056 19.5668 21.1508 19.6999 20.7293C20.0105 20.6628 20.2434 20.5408 20.3987 20.3633C20.554 20.1636 20.6871 19.9861 20.798 19.8309C21.1086 19.8087 21.3194 19.853 21.4303 19.964C21.5412 20.0749 21.6521 20.2524 21.763 20.4964C21.874 20.6961 22.0071 20.9179 22.1624 21.1619C22.3398 21.406 22.595 21.5945 22.9277 21.7276C22.9721 21.9051 23.0276 22.0937 23.0941 22.2933C23.1829 22.4708 23.2716 22.6705 23.3603 22.8923C23.5378 23.2695 23.6931 23.6688 23.8262 24.0903C23.9815 24.4896 24.0702 24.8778 24.0924 25.255C23.8706 25.6765 23.6931 26.1645 23.56 26.7192C23.4491 27.2738 23.3714 27.8395 23.3271 28.4163C23.3049 28.9709 23.316 29.5144 23.3603 30.0468C23.4269 30.5571 23.5267 30.9897 23.6598 31.3446L23.8595 31.7772L24.4252 31.7107C25.0907 31.5332 25.6897 31.3446 26.2221 31.145C26.7768 30.9231 27.287 30.668 27.7529 30.3796C28.2187 30.0912 28.6624 29.7584 29.0839 29.3813C29.5055 28.982 29.9491 28.5272 30.415 28.017C30.8809 27.5067 31.2802 26.9299 31.613 26.2866C31.9679 25.621 32.2563 24.9333 32.4782 24.2234C32.7222 23.5135 32.8997 22.8147 33.0106 22.127C33.1437 21.417 33.2325 20.7515 33.2768 20.1303C33.654 19.9972 33.8425 19.731 33.8425 19.3317L33.776 18.9657C33.6872 18.8325 33.6872 18.6773 33.776 18.4998C33.9091 18.0783 34.2197 17.7566 34.7077 17.5348C35.0627 17.7566 35.3733 18.0006 35.6395 18.2668C35.9279 18.5331 36.1941 18.7993 36.4381 19.0655ZM59.7652 37.401C59.5433 37.5119 59.3326 37.6118 59.1329 37.7005C58.9554 37.7892 58.7447 37.8336 58.5007 37.8336C57.6355 37.1903 57.1807 36.0699 57.1363 34.4727C57.1141 32.8754 57.458 30.8455 58.1679 28.383C58.2788 28.3164 58.3343 28.1833 58.3343 27.9837L58.0348 27.6509C57.946 27.6509 57.8573 27.662 57.7686 27.6842C57.702 27.7064 57.6466 27.784 57.6022 27.9171C57.0254 28.3386 56.3931 28.7823 55.7054 29.2482C55.0177 29.6919 54.2967 30.1134 53.5424 30.5127C52.8103 30.8899 52.056 31.2004 51.2796 31.4445C50.5253 31.6885 49.7821 31.8105 49.05 31.8105C47.1865 31.8105 45.7889 30.8677 44.8572 28.982L44.5909 28.4828L44.3247 28.9154C44.2582 29.0042 44.1583 29.1927 44.0252 29.4811C43.8921 29.7473 43.759 30.0579 43.6259 30.4129C43.4928 30.7678 43.3708 31.1339 43.2599 31.511C43.1711 31.866 43.1379 32.1766 43.16 32.4428C42.9604 32.6424 42.7496 32.8754 42.5278 33.1416C42.3059 33.4078 42.1396 33.7073 42.0286 34.0401C41.9843 34.2175 42.0064 34.3839 42.0952 34.5392C42.0508 34.7389 41.951 34.8942 41.7957 35.0051C41.707 35.116 41.6071 35.2269 41.4962 35.3379C41.4075 35.4266 41.3298 35.5264 41.2633 35.6373C41.2189 35.7483 41.1856 35.8592 41.1634 35.9701C41.1634 36.081 41.1523 36.192 41.1302 36.3029C41.1302 36.4582 41.108 36.6024 41.0636 36.7355C40.6865 37.5119 40.387 38.0111 40.1651 38.2329C39.9433 38.477 39.6438 38.599 39.2667 38.599C39.0892 38.599 38.8008 38.5657 38.4015 38.4992C38.1131 38.1886 37.8468 37.7671 37.6028 37.2346C37.381 36.68 37.2035 36.0921 37.0704 35.471C36.9595 34.8498 36.904 34.2286 36.904 33.6075C36.9262 32.9641 37.0371 32.4095 37.2368 31.9436C37.2368 31.9214 37.3255 31.6996 37.503 31.2781C37.6805 30.8566 37.9023 30.3131 38.1685 29.6475C38.4569 28.982 38.7786 28.2499 39.1335 27.4512C39.4885 26.6304 39.8435 25.8429 40.1984 25.0886C40.5534 24.3121 40.8861 23.6022 41.1967 22.9589C41.5295 22.3155 41.8068 21.8275 42.0286 21.4947C42.2061 21.2285 42.3614 20.9844 42.4945 20.7626C42.6498 20.5186 42.794 20.2856 42.9271 20.0638C43.3264 19.3761 43.7036 18.8104 44.0585 18.3667C44.4357 17.9008 44.9792 17.5348 45.6891 17.2685C46.1771 17.4682 46.5321 17.7011 46.7539 17.9674L46.8205 18.3334C46.9092 18.5552 47.0423 18.6662 47.2198 18.6662C47.4638 18.7327 47.6635 18.7993 47.8188 18.8658C47.9963 18.9102 48.1848 18.9546 48.3845 18.9989C48.5398 19.1764 48.684 19.3872 48.8171 19.6312C48.9946 19.8974 49.161 20.1636 49.3163 20.4298C49.4937 20.6739 49.6268 20.929 49.7156 21.1952C49.8265 21.4392 49.882 21.6944 49.882 21.9606C49.9041 22.2268 49.8598 22.5041 49.7489 22.7925L49.7821 23.1253C49.8931 23.3249 49.9152 23.6022 49.8487 23.9572C49.8265 24.1125 49.8154 24.2789 49.8154 24.4563C49.8154 24.6116 49.8376 24.7891 49.882 24.9888C50.2813 25.2993 50.6362 25.4546 50.9468 25.4546C51.3018 25.4546 51.6235 25.377 51.9119 25.2217C52.2224 25.0442 52.5108 24.8667 52.777 24.6893C52.9545 24.5562 53.132 24.4452 53.3095 24.3565C53.487 24.2456 53.6644 24.179 53.8419 24.1568C54.2412 23.7797 54.5962 23.4469 54.9068 23.1585C55.2395 22.8701 55.5834 22.5817 55.9383 22.2933C56.6039 21.7609 57.2472 21.1841 57.8684 20.5629C58.4896 19.9418 58.9887 19.1653 59.3659 18.2336C59.5877 18.1005 59.8206 18.0339 60.0647 18.0339C60.3087 18.0339 60.5638 18.0894 60.83 18.2003C61.0963 18.3112 61.3514 18.4221 61.5954 18.5331C61.662 18.5774 61.7174 18.6107 61.7618 18.6329C61.8283 18.6551 61.8838 18.6773 61.9282 18.6994C61.9282 18.9213 62.0169 19.1099 62.1944 19.2651C62.2831 19.3317 62.3386 19.3761 62.3608 19.3983C62.383 19.4204 62.4162 19.4426 62.4606 19.4648C62.7934 19.6423 63.0041 19.8198 63.0929 19.9972C63.2482 20.5075 63.5255 20.8957 63.9248 21.1619C63.8804 21.3838 63.8804 21.5945 63.9248 21.7942C63.9913 21.9717 64.069 22.1602 64.1577 22.3599C64.1799 22.4264 64.2021 22.493 64.2243 22.5596C64.2465 22.6261 64.2797 22.7038 64.3241 22.7925L63.6918 22.7259L63.7917 23.3582C63.836 23.6688 63.8028 24.0126 63.6918 24.3898C63.6031 24.7669 63.4922 25.0664 63.3591 25.2883C63.3813 25.8651 63.3924 26.3198 63.3924 26.6526C63.4145 26.9632 63.4034 27.2627 63.3591 27.5511C63.3147 27.8173 63.2482 28.0724 63.1594 28.3164C63.0929 28.5605 62.993 28.8267 62.8599 29.1151C62.9487 30.5349 62.7823 31.8327 62.3608 33.0085C61.9615 34.1621 61.5399 35.2491 61.0963 36.2696C61.0519 36.3805 60.9964 36.4915 60.9299 36.6024C60.8855 36.7133 60.8411 36.8242 60.7968 36.9351C60.5971 37.0017 60.4196 37.0793 60.2643 37.1681C60.109 37.2346 59.9427 37.3123 59.7652 37.401ZM87.5181 37.401C87.2962 37.5119 87.0855 37.6118 86.8858 37.7005C86.7083 37.7892 86.4976 37.8336 86.2535 37.8336C85.3883 37.1903 84.9336 36.0699 84.8892 34.4727C84.867 32.8754 85.2109 30.8455 85.9208 28.383C86.0317 28.3164 86.0872 28.1833 86.0872 27.9837L85.7877 27.6509C85.6989 27.6509 85.6102 27.662 85.5214 27.6842C85.4549 27.7064 85.3994 27.784 85.3551 27.9171C84.7783 28.3386 84.146 28.7823 83.4583 29.2482C82.7706 29.6919 82.0496 30.1134 81.2953 30.5127C80.5632 30.8899 79.8089 31.2004 79.0325 31.4445C78.2782 31.6885 77.535 31.8105 76.8029 31.8105C74.9394 31.8105 73.5418 30.8677 72.61 28.982L72.3438 28.4828L72.0776 28.9154C72.0111 29.0042 71.9112 29.1927 71.7781 29.4811C71.645 29.7473 71.5119 30.0579 71.3788 30.4129C71.2457 30.7678 71.1237 31.1339 71.0128 31.511C70.924 31.866 70.8907 32.1766 70.9129 32.4428C70.7133 32.6424 70.5025 32.8754 70.2807 33.1416C70.0588 33.4078 69.8924 33.7073 69.7815 34.0401C69.7371 34.2175 69.7593 34.3839 69.8481 34.5392C69.8037 34.7389 69.7039 34.8942 69.5486 35.0051C69.4598 35.116 69.36 35.2269 69.2491 35.3379C69.1603 35.4266 69.0827 35.5264 69.0161 35.6373C68.9718 35.7483 68.9385 35.8592 68.9163 35.9701C68.9163 36.081 68.9052 36.192 68.883 36.3029C68.883 36.4582 68.8609 36.6024 68.8165 36.7355C68.4393 37.5119 68.1399 38.0111 67.918 38.2329C67.6962 38.477 67.3967 38.599 67.0195 38.599C66.8421 38.599 66.5537 38.5657 66.1543 38.4992C65.8659 38.1886 65.5997 37.7671 65.3557 37.2346C65.1338 36.68 64.9564 36.0921 64.8233 35.471C64.7123 34.8498 64.6569 34.2286 64.6569 33.6075C64.6791 32.9641 64.79 32.4095 64.9896 31.9436C64.9896 31.9214 65.0784 31.6996 65.2559 31.2781C65.4333 30.8566 65.6552 30.3131 65.9214 29.6475C66.2098 28.982 66.5315 28.2499 66.8864 27.4512C67.2414 26.6304 67.5963 25.8429 67.9513 25.0886C68.3062 24.3121 68.639 23.6022 68.9496 22.9589C69.2824 22.3155 69.5597 21.8275 69.7815 21.4947C69.959 21.2285 70.1143 20.9844 70.2474 20.7626C70.4027 20.5186 70.5469 20.2856 70.68 20.0638C71.0793 19.3761 71.4564 18.8104 71.8114 18.3667C72.1885 17.9008 72.7321 17.5348 73.442 17.2685C73.93 17.4682 74.285 17.7011 74.5068 17.9674L74.5734 18.3334C74.6621 18.5552 74.7952 18.6662 74.9727 18.6662C75.2167 18.7327 75.4164 18.7993 75.5717 18.8658C75.7492 18.9102 75.9377 18.9546 76.1374 18.9989C76.2927 19.1764 76.4369 19.3872 76.57 19.6312C76.7475 19.8974 76.9138 20.1636 77.0691 20.4298C77.2466 20.6739 77.3797 20.929 77.4685 21.1952C77.5794 21.4392 77.6348 21.6944 77.6348 21.9606C77.657 22.2268 77.6127 22.5041 77.5017 22.7925L77.535 23.1253C77.6459 23.3249 77.6681 23.6022 77.6016 23.9572C77.5794 24.1125 77.5683 24.2789 77.5683 24.4563C77.5683 24.6116 77.5905 24.7891 77.6348 24.9888C78.0342 25.2993 78.3891 25.4546 78.6997 25.4546C79.0547 25.4546 79.3763 25.377 79.6647 25.2217C79.9753 25.0442 80.2637 24.8667 80.5299 24.6893C80.7074 24.5562 80.8849 24.4452 81.0624 24.3565C81.2398 24.2456 81.4173 24.179 81.5948 24.1568C81.9941 23.7797 82.3491 23.4469 82.6596 23.1585C82.9924 22.8701 83.3363 22.5817 83.6912 22.2933C84.3568 21.7609 85.0001 21.1841 85.6213 20.5629C86.2424 19.9418 86.7416 19.1653 87.1187 18.2336C87.3406 18.1005 87.5735 18.0339 87.8175 18.0339C88.0616 18.0339 88.3167 18.0894 88.5829 18.2003C88.8491 18.3112 89.1043 18.4221 89.3483 18.5331C89.4148 18.5774 89.4703 18.6107 89.5147 18.6329C89.5812 18.6551 89.6367 18.6773 89.6811 18.6994C89.6811 18.9213 89.7698 19.1099 89.9473 19.2651C90.036 19.3317 90.0915 19.3761 90.1136 19.3983C90.1358 19.4204 90.1691 19.4426 90.2135 19.4648C90.5462 19.6423 90.757 19.8198 90.8457 19.9972C91.001 20.5075 91.2783 20.8957 91.6777 21.1619C91.6333 21.3838 91.6333 21.5945 91.6777 21.7942C91.7442 21.9717 91.8219 22.1602 91.9106 22.3599C91.9328 22.4264 91.955 22.493 91.9772 22.5596C91.9993 22.6261 92.0326 22.7038 92.077 22.7925L91.4447 22.7259L91.5446 23.3582C91.5889 23.6688 91.5556 24.0126 91.4447 24.3898C91.356 24.7669 91.2451 25.0664 91.112 25.2883C91.1341 25.8651 91.1452 26.3198 91.1452 26.6526C91.1674 26.9632 91.1563 27.2627 91.112 27.5511C91.0676 27.8173 91.001 28.0724 90.9123 28.3164C90.8457 28.5605 90.7459 28.8267 90.6128 29.1151C90.7015 30.5349 90.5352 31.8327 90.1136 33.0085C89.7143 34.1621 89.2928 35.2491 88.8491 36.2696C88.8048 36.3805 88.7493 36.4915 88.6827 36.6024C88.6384 36.7133 88.594 36.8242 88.5496 36.9351C88.35 37.0017 88.1725 37.0793 88.0172 37.1681C87.8619 37.2346 87.6955 37.3123 87.5181 37.401ZM108.649 29.0153C108.627 29.1262 108.604 29.226 108.582 29.3147C108.56 29.3813 108.538 29.4479 108.516 29.5144C108.494 29.581 108.482 29.6697 108.482 29.7806C108.482 29.8694 108.482 29.9914 108.482 30.1467C107.817 31.3225 106.974 32.3097 105.953 33.1083C104.955 33.907 103.846 34.6169 102.626 35.238C101.428 35.837 100.174 36.3916 98.8655 36.9019C97.5566 37.3899 96.281 37.9224 95.0386 38.4992C94.5062 38.366 94.0958 38.1442 93.8074 37.8336C93.5412 37.523 93.3304 37.1681 93.1751 36.7688C93.042 36.3473 92.9422 35.8925 92.8756 35.4044C92.8313 34.8942 92.7869 34.3728 92.7425 33.8404C92.8091 33.5964 92.8978 33.3967 93.0087 33.2414C93.1418 33.0639 93.2084 32.8199 93.2084 32.5093C93.3859 31.9325 93.5633 31.3668 93.7408 30.8122C93.9183 30.2576 94.0292 29.6919 94.0736 29.1151C94.1401 28.9376 94.2622 28.8156 94.4396 28.749C94.5506 27.6842 94.5506 26.6082 94.4396 25.5212C94.3509 24.412 94.1734 23.3804 93.9072 22.4264C93.9294 22.2046 93.9516 22.0493 93.9738 21.9606C94.0181 21.8496 94.0181 21.772 93.9738 21.7276C93.9516 21.5502 94.007 21.4614 94.1401 21.4614C94.2954 21.4614 94.4507 21.4614 94.606 21.4614C94.606 21.1286 94.5395 20.7959 94.4064 20.4631C94.2954 20.1303 94.1845 19.7532 94.0736 19.3317C94.2289 18.9989 94.3287 18.6773 94.3731 18.3667C94.4174 18.0339 94.5173 17.7455 94.6726 17.5015C95.8705 17.8786 97.013 18.3334 98.1001 18.8658C99.2093 19.3983 100.296 19.7865 101.361 20.0305C102.16 20.6073 102.981 21.1841 103.824 21.7609C104.667 22.3155 105.432 22.9367 106.12 23.6244C106.808 24.2899 107.384 25.0553 107.85 25.9205C108.316 26.7857 108.582 27.8173 108.649 29.0153ZM100.762 30.8455C101.228 30.668 101.683 30.4794 102.127 30.2798C102.592 30.0801 103.014 29.8583 103.391 29.6142C103.79 29.348 104.145 29.0485 104.456 28.7158C104.767 28.383 105.022 27.9837 105.221 27.5178C105.088 27.2516 104.911 27.0186 104.689 26.819C104.467 26.5971 104.245 26.3975 104.023 26.22C103.802 26.0203 103.58 25.8207 103.358 25.621C103.158 25.4214 102.992 25.1773 102.859 24.8889C102.57 24.8446 102.315 24.7669 102.093 24.656C101.871 24.5229 101.65 24.4009 101.428 24.2899C101.228 24.1568 101.006 24.0348 100.762 23.9239C100.54 23.813 100.274 23.7464 99.9636 23.7242C99.4755 23.4802 99.0318 23.3027 98.6325 23.1918C98.2554 23.0809 97.967 22.9367 97.7673 22.7592C97.612 22.7592 97.49 22.7925 97.4013 22.859C97.6231 23.7021 97.7895 24.5007 97.9004 25.255C98.0113 25.9871 98.0668 26.7302 98.0668 27.4845C98.089 28.2166 98.0557 28.9709 97.967 29.7473C97.8782 30.5238 97.7562 31.3668 97.6009 32.2764C97.8228 32.2542 98.0224 32.2098 98.1999 32.1433C98.3996 32.0545 98.5881 31.9658 98.7656 31.8771C98.9653 31.7883 99.1649 31.7107 99.3646 31.6441C99.5864 31.5554 99.8416 31.4999 100.13 31.4777C100.197 31.3446 100.285 31.2337 100.396 31.145C100.529 31.0562 100.651 30.9564 100.762 30.8455ZM116.236 35.6706C116.347 36.3362 116.303 36.8575 116.103 37.2346C115.925 37.6118 115.659 37.8891 115.304 38.0666C114.971 38.2662 114.583 38.3771 114.14 38.3993C113.696 38.4215 113.274 38.3993 112.875 38.3328C112.653 38.0222 112.453 37.634 112.276 37.1681C112.099 36.7022 111.932 36.2252 111.777 35.7372C111.622 35.2269 111.477 34.7278 111.344 34.2397C111.233 33.7517 111.134 33.3191 111.045 32.9419C111.156 32.6757 111.222 32.3762 111.244 32.0434C111.289 31.6885 111.311 31.3335 111.311 30.9786C111.333 30.6236 111.344 30.2687 111.344 29.9137C111.366 29.5366 111.4 29.1816 111.444 28.8489C111.599 27.9171 111.821 27.0297 112.11 26.1867C112.42 25.3437 112.664 24.4674 112.842 23.5579C112.886 23.3582 112.864 23.1696 112.775 22.9922C112.709 22.8147 112.698 22.6483 112.742 22.493C112.764 22.4043 112.831 22.3488 112.942 22.3266C113.052 22.2822 113.119 22.2046 113.141 22.0937C113.208 21.8496 113.219 21.65 113.174 21.4947C113.152 21.3394 113.197 21.1508 113.308 20.929C113.419 20.7515 113.552 20.4964 113.707 20.1636C113.884 19.8087 113.951 19.4426 113.907 19.0655C114.106 18.9324 114.295 18.7771 114.472 18.5996C114.65 18.4221 114.827 18.2668 115.005 18.1337C115.204 17.9784 115.415 17.8453 115.637 17.7344C115.881 17.6235 116.169 17.568 116.502 17.568C116.68 17.7899 116.791 18.0339 116.835 18.3001C116.901 18.5663 116.957 18.8325 117.001 19.0988C117.068 19.365 117.157 19.6201 117.268 19.8641C117.378 20.086 117.567 20.2635 117.833 20.3966C117.833 20.574 117.833 20.7959 117.833 21.0621C117.833 21.3283 117.844 21.5945 117.867 21.8607C117.889 22.1048 117.933 22.3377 118 22.5596C118.088 22.7592 118.221 22.8923 118.399 22.9589C118 24.0237 117.622 25.0775 117.268 26.1202C116.935 27.1628 116.657 28.2166 116.436 29.2815C116.214 30.3241 116.07 31.3779 116.003 32.4428C115.959 33.5076 116.036 34.5836 116.236 35.6706Z" fill="black"/>
<g filter="url(#filter0_d_222_2411)">
<path fill-rule="evenodd" clip-rule="evenodd" d="M106.477 11.5123C105.229 13.4968 102.977 14.8217 100.405 14.8217C96.4792 14.8217 93.2969 11.7349 93.2969 7.9272C93.2969 4.21203 96.3264 1.18319 100.12 1.03815V1.03271H100.405L116.894 1.03271H117.179V1.03814C120.973 1.183 124.002 4.21191 124.002 7.9272C124.002 11.7349 120.82 14.8217 116.894 14.8217C114.323 14.8217 112.07 13.4968 110.822 11.5123L106.477 11.5123Z" fill="white"/>
</g>
<ellipse cx="116.893" cy="7.92671" rx="7.1079" ry="6.89448" fill="white"/>
<ellipse cx="116.989" cy="7.80607" rx="4.4892" ry="4.35441" fill="black"/>
<rect x="98.793" y="3.69336" width="2.65361" height="7.72182" rx="1.13795" fill="#FF9900"/>
<rect x="104.102" y="6.26709" width="2.57394" height="7.96084" rx="1.13795" transform="rotate(90 104.102 6.26709)" fill="#FF9900"/>
<defs>
<filter id="filter0_d_222_2411" x="92.1589" y="1.03271" width="32.981" height="16.065" filterUnits="userSpaceOnUse" color-interpolation-filters="sRGB">
<feFlood flood-opacity="0" result="BackgroundImageFix"/>
<feColorMatrix in="SourceAlpha" type="matrix" values="0 0 0 0 0 0 0 0 0 0 0 0 0 0 0 0 0 0 127 0" result="hardAlpha"/>
<feOffset dy="1.13795"/>
<feGaussianBlur stdDeviation="0.568974"/>
<feComposite in2="hardAlpha" operator="out"/>
<feColorMatrix type="matrix" values="0 0 0 0 0 0 0 0 0 0 0 0 0 0 0 0 0 0 0.25 0"/>
<feBlend mode="normal" in2="BackgroundImageFix" result="effect1_dropShadow_222_2411"/>
<feBlend mode="normal" in="SourceGraphic" in2="effect1_dropShadow_222_2411" result="shape"/>
</filter>
</defs>
</svg>
