<svg width="35" height="34" viewBox="0 0 35 34" fill="none" xmlns="http://www.w3.org/2000/svg">
<rect x="0.255859" width="33.837" height="33.837" rx="3.3837" fill="url(#paint0_linear_136_1822)"/>
<path fill-rule="evenodd" clip-rule="evenodd" d="M10.495 7.84172C10.6977 7.63937 10.941 7.4824 11.2089 7.38122C11.4768 7.28003 11.7631 7.23693 12.0489 7.25478C12.3347 7.27263 12.6134 7.35102 12.8666 7.48476C13.1198 7.61849 13.3417 7.80451 13.5176 8.0305L15.5964 10.7012C15.9774 11.1911 16.1117 11.8293 15.9612 12.4315L15.3277 14.9679C15.2949 15.0993 15.2967 15.2369 15.3328 15.3674C15.369 15.4979 15.4382 15.6168 15.5338 15.7126L18.3792 18.5582C18.4752 18.6541 18.5943 18.7234 18.725 18.7596C18.8557 18.7957 18.9935 18.7973 19.125 18.7644L21.6601 18.1309C21.9572 18.0566 22.2674 18.0508 22.5672 18.114C22.8669 18.1772 23.1483 18.3077 23.3902 18.4957L26.0607 20.5734C27.0208 21.3205 27.1088 22.7392 26.2495 23.5974L25.0521 24.7949C24.1951 25.652 22.9143 26.0284 21.7203 25.608C18.6643 24.5327 15.8897 22.783 13.6022 20.4889C11.3083 18.2015 9.55886 15.4271 8.48346 12.3713C8.06424 11.1784 8.44062 9.8963 9.29759 9.03926L10.495 7.84172Z" fill="white"/>
<defs>
<linearGradient id="paint0_linear_136_1822" x1="17.1744" y1="0" x2="17.1744" y2="33.837" gradientUnits="userSpaceOnUse">
<stop stop-color="#FE346E"/>
<stop offset="1" stop-color="#FB8609"/>
</linearGradient>
</defs>
</svg>
