<svg width="59" height="58" viewBox="0 0 59 58" fill="none" xmlns="http://www.w3.org/2000/svg">
<path fill-rule="evenodd" clip-rule="evenodd" d="M0.199219 4.84564C0.199219 3.5605 0.70974 2.32799 1.61847 1.41926C2.52721 0.510527 3.75971 6.45992e-06 5.04486 6.45992e-06H53.3483C53.9852 -0.00103372 54.616 0.123554 55.2047 0.366637C55.7933 0.60972 56.3283 0.966523 56.7789 1.41662C57.2295 1.86672 57.5868 2.40127 57.8306 2.98967C58.0743 3.57807 58.1996 4.20876 58.1992 4.84564V53.1491C58.1999 53.7861 58.075 54.417 57.8316 55.0057C57.5883 55.5943 57.2312 56.1293 56.7809 56.5798C56.3306 57.0304 55.7959 57.3877 55.2073 57.6314C54.6188 57.8751 53.9879 58.0004 53.3509 58H5.04486C4.4083 58 3.77797 57.8746 3.1899 57.6309C2.60183 57.3872 2.06753 57.0301 1.61754 56.5798C1.16755 56.1296 0.810676 55.5951 0.567315 55.0069C0.323954 54.4187 0.198873 53.7883 0.199219 53.1517V4.84564ZM23.1567 22.1138H31.0104V26.0578C32.144 23.7906 35.044 21.75 39.4019 21.75C47.7566 21.75 49.7365 26.2661 49.7365 34.5522V49.9011H41.2817V36.4398C41.2817 31.7207 40.148 29.058 37.2691 29.058C33.275 29.058 31.6141 31.929 31.6141 36.4398V49.9011H23.1567V22.1138ZM8.65667 49.5399H17.1141V21.75H8.65667V49.5373V49.5399ZM18.3242 12.6862C18.3402 13.4103 18.2113 14.1304 17.9452 14.804C17.6791 15.4777 17.2811 16.0914 16.7746 16.6092C16.2682 17.127 15.6633 17.5383 14.9957 17.8192C14.328 18.1001 13.611 18.2447 12.8867 18.2447C12.1624 18.2447 11.4454 18.1001 10.7777 17.8192C10.1101 17.5383 9.50529 17.127 8.99879 16.6092C8.49229 16.0914 8.09432 15.4777 7.82822 14.804C7.56213 14.1304 7.43327 13.4103 7.44922 12.6862C7.48052 11.2648 8.06714 9.91218 9.08346 8.918C10.0998 7.92381 11.465 7.36711 12.8867 7.36711C14.3084 7.36711 15.6737 7.92381 16.69 8.918C17.7063 9.91218 18.2929 11.2648 18.3242 12.6862Z" fill="url(#paint0_linear_200_1193)"/>
<defs>
<linearGradient id="paint0_linear_200_1193" x1="29.1992" y1="0" x2="29.1992" y2="58" gradientUnits="userSpaceOnUse">
<stop stop-color="#FF3A68"/>
<stop offset="1" stop-color="#FD840E"/>
</linearGradient>
</defs>
</svg>
