<svg width="59" height="58" viewBox="0 0 59 58" fill="none" xmlns="http://www.w3.org/2000/svg">
<path d="M29.1992 21.808C27.7768 21.808 26.3863 22.2298 25.2036 23.0201C24.0208 23.8103 23.099 24.9336 22.5547 26.2477C22.0103 27.5619 21.8679 29.008 22.1454 30.4031C22.4229 31.7982 23.1079 33.0797 24.1137 34.0855C25.1195 35.0913 26.401 35.7763 27.7961 36.0538C29.1912 36.3313 30.6373 36.1889 31.9515 35.6445C33.2656 35.1002 34.3889 34.1784 35.1791 32.9957C35.9694 31.8129 36.3912 30.4224 36.3912 29C36.3912 28.0555 36.2052 27.1203 35.8438 26.2477C35.4823 25.3752 34.9526 24.5823 34.2847 23.9145C33.6169 23.2466 32.8241 22.7169 31.9515 22.3555C31.0789 21.994 30.1437 21.808 29.1992 21.808ZM57.9962 14.703C57.981 12.4635 57.5686 10.2445 56.7782 8.149C56.1961 6.61565 55.2955 5.22317 54.1358 4.06344C52.976 2.9037 51.5836 2.00308 50.0502 1.421C47.9548 0.630645 45.7357 0.218257 43.4962 0.203C39.7552 -1.9446e-07 38.6532 0 29.1992 0C19.7452 0 18.6432 -1.9446e-07 14.9022 0.203C12.6627 0.218257 10.4437 0.630645 8.34822 1.421C6.81487 2.00308 5.42239 2.9037 4.26266 4.06344C3.10292 5.22317 2.2023 6.61565 1.62022 8.149C0.829864 10.2445 0.417475 12.4635 0.402219 14.703C0.199219 18.444 0.199219 19.546 0.199219 29C0.199219 38.454 0.199219 39.556 0.402219 43.297C0.433434 45.5444 0.845264 47.7702 1.62022 49.88C2.19972 51.4063 3.09959 52.7908 4.25922 53.94C5.41398 55.1067 6.80945 56.0073 8.34822 56.579C10.4437 57.3694 12.6627 57.7817 14.9022 57.797C18.6432 58 19.7452 58 29.1992 58C38.6532 58 39.7552 58 43.4962 57.797C45.7357 57.7817 47.9548 57.3694 50.0502 56.579C51.589 56.0073 52.9845 55.1067 54.1392 53.94C55.2988 52.7908 56.1987 51.4063 56.7782 49.88C57.5678 47.7743 57.9801 45.5459 57.9962 43.297C58.1992 39.556 58.1992 38.454 58.1992 29C58.1992 19.546 58.1992 18.444 57.9962 14.703ZM50.6302 37.903C50.5372 39.6926 50.1552 41.4554 49.4992 43.123C48.9362 44.5141 48.0993 45.7778 47.0381 46.8389C45.977 47.9001 44.7133 48.737 43.3222 49.3C41.6388 49.9194 39.8662 50.2622 38.0732 50.315H20.3252C18.5322 50.2622 16.7596 49.9194 15.0762 49.3C13.6381 48.7656 12.3394 47.913 11.2772 46.806C10.2265 45.7656 9.41497 44.5088 8.89922 43.123C8.27734 41.4413 7.94398 39.6667 7.91322 37.874V20.126C7.94398 18.3333 8.27734 16.5587 8.89922 14.877C9.43363 13.4389 10.2862 12.1402 11.3932 11.078C12.4382 10.0329 13.6937 9.22227 15.0762 8.7C16.7596 8.08058 18.5322 7.73781 20.3252 7.685H38.0732C39.8662 7.73781 41.6388 8.08058 43.3222 8.7C44.7603 9.23442 46.059 10.087 47.1212 11.194C48.172 12.2344 48.9835 13.4912 49.4992 14.877C50.1186 16.5604 50.4614 18.333 50.5142 20.126V29C50.5142 34.974 50.7172 35.583 50.6302 37.874V37.903ZM45.9902 16.327C45.6449 15.3903 45.1005 14.5396 44.3946 13.8336C43.6887 13.1277 42.838 12.5833 41.9012 12.238C40.615 11.7922 39.2603 11.5762 37.8992 11.6H20.4992C19.1312 11.6134 17.7763 11.8686 16.4972 12.354C15.5748 12.6836 14.7331 13.2058 14.0281 13.8858C13.3231 14.5658 12.7709 15.3881 12.4082 16.298C11.9871 17.5896 11.7813 18.9416 11.7992 20.3V37.7C11.828 39.0665 12.0827 40.4188 12.5532 41.702C12.8985 42.6387 13.4429 43.4894 14.1488 44.1954C14.8548 44.9013 15.7055 45.4457 16.6422 45.791C17.8796 46.2461 19.1816 46.5006 20.4992 46.545H37.8992C39.2672 46.5316 40.6221 46.2764 41.9012 45.791C42.838 45.4457 43.6887 44.9013 44.3946 44.1954C45.1005 43.4894 45.6449 42.6387 45.9902 41.702C46.4756 40.4229 46.7308 39.068 46.7442 37.7V20.3C46.7451 18.9306 46.4893 17.5732 45.9902 16.298V16.327ZM29.1992 40.078C27.7458 40.078 26.3067 39.7913 24.9642 39.2342C23.6218 38.6771 22.4025 37.8606 21.3761 36.8316C20.3498 35.8025 19.5365 34.5811 18.9829 33.2372C18.4294 31.8933 18.1464 30.4534 18.1502 29C18.1502 26.8077 18.8007 24.6648 20.0192 22.8424C21.2378 21.02 22.9696 19.6001 24.9956 18.7625C27.0215 17.9249 29.2504 17.7072 31.4001 18.137C33.5498 18.5668 35.5237 19.6248 37.0718 21.177C38.6199 22.7292 39.6727 24.7058 40.0969 26.8566C40.521 29.0075 40.2975 31.2358 39.4546 33.2595C38.6117 35.2832 37.1873 37.0114 35.3617 38.2251C33.5361 39.4389 31.3915 40.0837 29.1992 40.078ZM40.7992 20.097C40.1582 20.0291 39.5649 19.7264 39.1337 19.2472C38.7025 18.768 38.464 18.1461 38.464 17.5015C38.464 16.8569 38.7025 16.235 39.1337 15.7558C39.5649 15.2766 40.1582 14.9739 40.7992 14.906C41.4403 14.9739 42.0336 15.2766 42.4647 15.7558C42.8959 16.235 43.1345 16.8569 43.1345 17.5015C43.1345 18.1461 42.8959 18.768 42.4647 19.2472C42.0336 19.7264 41.4403 20.0291 40.7992 20.097Z" fill="url(#paint0_linear_200_1215)"/>
<defs>
<linearGradient id="paint0_linear_200_1215" x1="29.1992" y1="0" x2="29.1992" y2="58" gradientUnits="userSpaceOnUse">
<stop stop-color="#FF3E65"/>
<stop offset="1" stop-color="#FE8212"/>
</linearGradient>
</defs>
</svg>
